<?xml version="1.0" encoding="utf-8" standalone="no"?>
<!DOCTYPE svg PUBLIC "-//W3C//DTD SVG 1.1//EN"
  "http://www.w3.org/Graphics/SVG/1.1/DTD/svg11.dtd">
<!-- Created with matplotlib (http://matplotlib.org/) -->
<svg height="432pt" version="1.1" viewBox="0 0 576 432" width="576pt" xmlns="http://www.w3.org/2000/svg" xmlns:xlink="http://www.w3.org/1999/xlink">
 <defs>
  <style type="text/css">
*{stroke-linecap:butt;stroke-linejoin:round;stroke-miterlimit:100000;}
  </style>
 </defs>
 <g id="figure_1">
  <g id="patch_1">
   <path d="M 0 432 
L 576 432 
L 576 0 
L 0 0 
L 0 432 
z
" style="fill:none;"/>
  </g>
  <g id="axes_1">
   <g id="PathCollection_1">
    <defs>
     <path d="M 0 0.707107 
C 0.187527 0.707107 0.367398 0.632602 0.5 0.5 
C 0.632602 0.367398 0.707107 0.187527 0.707107 0 
C 0.707107 -0.187527 0.632602 -0.367398 0.5 -0.5 
C 0.367398 -0.632602 0.187527 -0.707107 0 -0.707107 
C -0.187527 -0.707107 -0.367398 -0.632602 -0.5 -0.5 
C -0.632602 -0.367398 -0.707107 -0.187527 -0.707107 0 
C -0.707107 0.187527 -0.632602 0.367398 -0.5 0.5 
C -0.367398 0.632602 -0.187527 0.707107 0 0.707107 
z
" id="m7726f896e0" style="stroke:#b3cde3;"/>
    </defs>
    <g clip-path="url(#pf5c3f920c5)">
     <use style="fill:#b3cde3;stroke:#b3cde3;" x="435.229034934" xlink:href="#m7726f896e0" y="95.0744300915"/>
     <use style="fill:#b3cde3;stroke:#b3cde3;" x="434.077676649" xlink:href="#m7726f896e0" y="118.244303929"/>
     <use style="fill:#b3cde3;stroke:#b3cde3;" x="393.780378085" xlink:href="#m7726f896e0" y="146.635578657"/>
     <use style="fill:#b3cde3;stroke:#b3cde3;" x="384.665531494" xlink:href="#m7726f896e0" y="66.1936287967"/>
     <use style="fill:#b3cde3;stroke:#b3cde3;" x="414.873498864" xlink:href="#m7726f896e0" y="91.0360004143"/>
     <use style="fill:#b3cde3;stroke:#b3cde3;" x="395.354500662" xlink:href="#m7726f896e0" y="130.074001958"/>
     <use style="fill:#b3cde3;stroke:#b3cde3;" x="411.844675084" xlink:href="#m7726f896e0" y="105.53587481"/>
     <use style="fill:#b3cde3;stroke:#b3cde3;" x="372.081846964" xlink:href="#m7726f896e0" y="101.309161791"/>
     <use style="fill:#b3cde3;stroke:#b3cde3;" x="385.595000023" xlink:href="#m7726f896e0" y="130.073999164"/>
     <use style="fill:#b3cde3;stroke:#b3cde3;" x="419.496418992" xlink:href="#m7726f896e0" y="112.056465632"/>
     <use style="fill:#b3cde3;stroke:#b3cde3;" x="416.595763859" xlink:href="#m7726f896e0" y="72.8182674965"/>
     <use style="fill:#b3cde3;stroke:#b3cde3;" x="393.780377502" xlink:href="#m7726f896e0" y="118.244374651"/>
     <use style="fill:#b3cde3;stroke:#b3cde3;" x="398.224920908" xlink:href="#m7726f896e0" y="83.2284400994"/>
     <use style="fill:#b3cde3;stroke:#b3cde3;" x="423.331738472" xlink:href="#m7726f896e0" y="143.852173558"/>
     <use style="fill:#b3cde3;stroke:#b3cde3;" x="426.80177692" xlink:href="#m7726f896e0" y="85.4591433661"/>
     <use style="fill:#b3cde3;stroke:#b3cde3;" x="409.451555037" xlink:href="#m7726f896e0" y="96.6128575695"/>
     <use style="fill:#b3cde3;stroke:#b3cde3;" x="393.780385894" xlink:href="#m7726f896e0" y="108.78054669"/>
     <use style="fill:#b3cde3;stroke:#b3cde3;" x="409.451555726" xlink:href="#m7726f896e0" y="94.2012433042"/>
     <use style="fill:#b3cde3;stroke:#b3cde3;" x="368.768275218" xlink:href="#m7726f896e0" y="132.304743087"/>
     <use style="fill:#b3cde3;stroke:#b3cde3;" x="371.281065594" xlink:href="#m7726f896e0" y="107.110471409"/>
     <use style="fill:#b3cde3;stroke:#b3cde3;" x="416.595762949" xlink:href="#m7726f896e0" y="104.04866741"/>
     <use style="fill:#b3cde3;stroke:#b3cde3;" x="364.074073339" xlink:href="#m7726f896e0" y="114.458779076"/>
     <use style="fill:#b3cde3;stroke:#b3cde3;" x="392.10134016" xlink:href="#m7726f896e0" y="122.266423773"/>
     <use style="fill:#b3cde3;stroke:#b3cde3;" x="392.10132723" xlink:href="#m7726f896e0" y="107.766569229"/>
     <use style="fill:#b3cde3;stroke:#b3cde3;" x="400.776444037" xlink:href="#m7726f896e0" y="130.07400141"/>
     <use style="fill:#b3cde3;stroke:#b3cde3;" x="423.331737256" xlink:href="#m7726f896e0" y="88.7396450041"/>
     <use style="fill:#b3cde3;stroke:#b3cde3;" x="413.929032597" xlink:href="#m7726f896e0" y="89.8530326731"/>
     <use style="fill:#b3cde3;stroke:#b3cde3;" x="434.392500672" xlink:href="#m7726f896e0" y="100.79549956"/>
     <use style="fill:#b3cde3;stroke:#b3cde3;" x="403.059367221" xlink:href="#m7726f896e0" y="100.044770078"/>
     <use style="fill:#b3cde3;stroke:#b3cde3;" x="422.613799164" xlink:href="#m7726f896e0" y="105.535830215"/>
     <use style="fill:#b3cde3;stroke:#b3cde3;" x="374.751090287" xlink:href="#m7726f896e0" y="85.4591771205"/>
     <use style="fill:#b3cde3;stroke:#b3cde3;" x="425.781179685" xlink:href="#m7726f896e0" y="104.048659287"/>
     <use style="fill:#b3cde3;stroke:#b3cde3;" x="434.688241531" xlink:href="#m7726f896e0" y="112.44393685"/>
     <use style="fill:#b3cde3;stroke:#b3cde3;" x="407.410351806" xlink:href="#m7726f896e0" y="135.279067454"/>
     <use style="fill:#b3cde3;stroke:#b3cde3;" x="434.688278132" xlink:href="#m7726f896e0" y="82.2209667507"/>
     <use style="fill:#b3cde3;stroke:#b3cde3;" x="408.116969619" xlink:href="#m7726f896e0" y="84.8721652601"/>
     <use style="fill:#b3cde3;stroke:#b3cde3;" x="411.844691363" xlink:href="#m7726f896e0" y="87.6898850374"/>
     <use style="fill:#b3cde3;stroke:#b3cde3;" x="408.662892664" xlink:href="#m7726f896e0" y="98.8436186169"/>
     <use style="fill:#b3cde3;stroke:#b3cde3;" x="376.626810593" xlink:href="#m7726f896e0" y="98.2652607245"/>
     <use style="fill:#b3cde3;stroke:#b3cde3;" x="405.113999627" xlink:href="#m7726f896e0" y="91.0360003731"/>
     <use style="fill:#b3cde3;stroke:#b3cde3;" x="399.537147192" xlink:href="#m7726f896e0" y="69.3482247062"/>
     <use style="fill:#b3cde3;stroke:#b3cde3;" x="398.224920908" xlink:href="#m7726f896e0" y="83.2284400994"/>
     <use style="fill:#b3cde3;stroke:#b3cde3;" x="415.760726511" xlink:href="#m7726f896e0" y="92.2952913125"/>
     <use style="fill:#b3cde3;stroke:#b3cde3;" x="411.844675084" xlink:href="#m7726f896e0" y="105.53587481"/>
     <use style="fill:#b3cde3;stroke:#b3cde3;" x="373.631725924" xlink:href="#m7726f896e0" y="137.171804989"/>
     <use style="fill:#b3cde3;stroke:#b3cde3;" x="387.369458179" xlink:href="#m7726f896e0" y="72.1466480191"/>
     <use style="fill:#b3cde3;stroke:#b3cde3;" x="394.183362921" xlink:href="#m7726f896e0" y="92.0369747544"/>
     <use style="fill:#b3cde3;stroke:#b3cde3;" x="357.400887775" xlink:href="#m7726f896e0" y="118.920288449"/>
     <use style="fill:#b3cde3;stroke:#b3cde3;" x="395.354499626" xlink:href="#m7726f896e0" y="91.0360005329"/>
     <use style="fill:#b3cde3;stroke:#b3cde3;" x="409.451555726" xlink:href="#m7726f896e0" y="94.2012433042"/>
     <use style="fill:#b3cde3;stroke:#b3cde3;" x="381.691200217" xlink:href="#m7726f896e0" y="97.9250626797"/>
     <use style="fill:#b3cde3;stroke:#b3cde3;" x="388.383442767" xlink:href="#m7726f896e0" y="95.3735501456"/>
     <use style="fill:#b3cde3;stroke:#b3cde3;" x="418.830053535" xlink:href="#m7726f896e0" y="109.832074291"/>
     <use style="fill:#b3cde3;stroke:#b3cde3;" x="373.631740492" xlink:href="#m7726f896e0" y="80.3892736793"/>
     <use style="fill:#b3cde3;stroke:#b3cde3;" x="405.114002216" xlink:href="#m7726f896e0" y="71.5170018313"/>
     <use style="fill:#b3cde3;stroke:#b3cde3;" x="402.511467416" xlink:href="#m7726f896e0" y="88.7396716041"/>
     <use style="fill:#b3cde3;stroke:#b3cde3;" x="412.921599053" xlink:href="#m7726f896e0" y="79.5542359649"/>
     <use style="fill:#b3cde3;stroke:#b3cde3;" x="397.306407191" xlink:href="#m7726f896e0" y="91.0360002529"/>
     <use style="fill:#b3cde3;stroke:#b3cde3;" x="405.11399954" xlink:href="#m7726f896e0" y="81.2765005112"/>
     <use style="fill:#b3cde3;stroke:#b3cde3;" x="377.905662849" xlink:href="#m7726f896e0" y="112.44391818"/>
     <use style="fill:#b3cde3;stroke:#b3cde3;" x="368.441937978" xlink:href="#m7726f896e0" y="92.2952907084"/>
     <use style="fill:#b3cde3;stroke:#b3cde3;" x="412.921604931" xlink:href="#m7726f896e0" y="116.295887453"/>
     <use style="fill:#b3cde3;stroke:#b3cde3;" x="361.483294543" xlink:href="#m7726f896e0" y="72.8182684527"/>
     <use style="fill:#b3cde3;stroke:#b3cde3;" x="435.229027914" xlink:href="#m7726f896e0" y="84.3053107984"/>
     <use style="fill:#b3cde3;stroke:#b3cde3;" x="381.691112113" xlink:href="#m7726f896e0" y="108.052428182"/>
     <use style="fill:#b3cde3;stroke:#b3cde3;" x="444.152" xlink:href="#m7726f896e0" y="120.55253801"/>
     <use style="fill:#b3cde3;stroke:#b3cde3;" x="428.136409929" xlink:href="#m7726f896e0" y="126.950961125"/>
     <use style="fill:#b3cde3;stroke:#b3cde3;" x="424.003356201" xlink:href="#m7726f896e0" y="89.8530252348"/>
     <use style="fill:#b3cde3;stroke:#b3cde3;" x="401.075585727" xlink:href="#m7726f896e0" y="78.7669139762"/>
     <use style="fill:#b3cde3;stroke:#b3cde3;" x="421.018369957" xlink:href="#m7726f896e0" y="102.641896805"/>
     <use style="fill:#b3cde3;stroke:#b3cde3;" x="387.36945312" xlink:href="#m7726f896e0" y="112.443935256"/>
     <use style="fill:#b3cde3;stroke:#b3cde3;" x="387.369457991" xlink:href="#m7726f896e0" y="132.59256716"/>
     <use style="fill:#b3cde3;stroke:#b3cde3;" x="388.383431818" xlink:href="#m7726f896e0" y="104.048673839"/>
     <use style="fill:#b3cde3;stroke:#b3cde3;" x="383.706058419" xlink:href="#m7726f896e0" y="70.9255271994"/>
     <use style="fill:#b3cde3;stroke:#b3cde3;" x="389.039506325" xlink:href="#m7726f896e0" y="93.6385708872"/>
     <use style="fill:#b3cde3;stroke:#b3cde3;" x="403.854708762" xlink:href="#m7726f896e0" y="80.3892729172"/>
     <use style="fill:#b3cde3;stroke:#b3cde3;" x="340.050673699" xlink:href="#m7726f896e0" y="97.9250605288"/>
     <use style="fill:#b3cde3;stroke:#b3cde3;" x="404.113022013" xlink:href="#m7726f896e0" y="114.458801227"/>
     <use style="fill:#b3cde3;stroke:#b3cde3;" x="399.537141981" xlink:href="#m7726f896e0" y="60.6731116069"/>
     <use style="fill:#b3cde3;stroke:#b3cde3;" x="405.113999572" xlink:href="#m7726f896e0" y="100.795500245"/>
     <use style="fill:#b3cde3;stroke:#b3cde3;" x="418.126637186" xlink:href="#m7726f896e0" y="98.8436382952"/>
     <use style="fill:#b3cde3;stroke:#b3cde3;" x="418.126661835" xlink:href="#m7726f896e0" y="96.612876272"/>
     <use style="fill:#b3cde3;stroke:#b3cde3;" x="413.929032597" xlink:href="#m7726f896e0" y="89.8530326731"/>
     <use style="fill:#b3cde3;stroke:#b3cde3;" x="408.46011506" xlink:href="#m7726f896e0" y="84.3053091687"/>
     <use style="fill:#b3cde3;stroke:#b3cde3;" x="399.537135966" xlink:href="#m7726f896e0" y="84.3053167517"/>
     <use style="fill:#b3cde3;stroke:#b3cde3;" x="396.83321174" xlink:href="#m7726f896e0" y="122.518258272"/>
     <use style="fill:#b3cde3;stroke:#b3cde3;" x="390.614171309" xlink:href="#m7726f896e0" y="95.0744154582"/>
     <use style="fill:#b3cde3;stroke:#b3cde3;" x="411.844682574" xlink:href="#m7726f896e0" y="96.6128640628"/>
     <use style="fill:#b3cde3;stroke:#b3cde3;" x="393.780385906" xlink:href="#m7726f896e0" y="99.3167881771"/>
     <use style="fill:#b3cde3;stroke:#b3cde3;" x="410.690857288" xlink:href="#m7726f896e0" y="112.723780088"/>
     <use style="fill:#b3cde3;stroke:#b3cde3;" x="412.921599053" xlink:href="#m7726f896e0" y="79.5542359649"/>
     <use style="fill:#b3cde3;stroke:#b3cde3;" x="401.075585096" xlink:href="#m7726f896e0" y="96.6128579446"/>
     <use style="fill:#b3cde3;stroke:#b3cde3;" x="363.84526145" xlink:href="#m7726f896e0" y="116.612619927"/>
     <use style="fill:#b3cde3;stroke:#b3cde3;" x="421.844571042" xlink:href="#m7726f896e0" y="95.3735582654"/>
     <use style="fill:#b3cde3;stroke:#b3cde3;" x="399.537117175" xlink:href="#m7726f896e0" y="104.0486781"/>
     <use style="fill:#b3cde3;stroke:#b3cde3;" x="403.059369378" xlink:href="#m7726f896e0" y="76.0213848113"/>
     <use style="fill:#b3cde3;stroke:#b3cde3;" x="368.441958473" xlink:href="#m7726f896e0" y="82.2210083882"/>
     <use style="fill:#b3cde3;stroke:#b3cde3;" x="401.948756215" xlink:href="#m7726f896e0" y="75.1316308693"/>
     <use style="fill:#b3cde3;stroke:#b3cde3;" x="426.306057634" xlink:href="#m7726f896e0" y="95.0744107668"/>
     <use style="fill:#b3cde3;stroke:#b3cde3;" x="401.948755655" xlink:href="#m7726f896e0" y="132.965703814"/>
     <use style="fill:#b3cde3;stroke:#b3cde3;" x="390.306468053" xlink:href="#m7726f896e0" y="87.6899014502"/>
     <use style="fill:#b3cde3;stroke:#b3cde3;" x="409.451555726" xlink:href="#m7726f896e0" y="94.2012433042"/>
     <use style="fill:#b3cde3;stroke:#b3cde3;" x="396.833151297" xlink:href="#m7726f896e0" y="92.2952660199"/>
     <use style="fill:#b3cde3;stroke:#b3cde3;" x="370.668704579" xlink:href="#m7726f896e0" y="93.6385345067"/>
     <use style="fill:#b3cde3;stroke:#b3cde3;" x="408.116921278" xlink:href="#m7726f896e0" y="76.6535785967"/>
     <use style="fill:#b3cde3;stroke:#b3cde3;" x="444.152" xlink:href="#m7726f896e0" y="136.404487109"/>
     <use style="fill:#b3cde3;stroke:#b3cde3;" x="415.760731" xlink:href="#m7726f896e0" y="62.0723234796"/>
     <use style="fill:#b3cde3;stroke:#b3cde3;" x="405.113999627" xlink:href="#m7726f896e0" y="91.0360003731"/>
     <use style="fill:#b3cde3;stroke:#b3cde3;" x="336.797498251" xlink:href="#m7726f896e0" y="110.555001511"/>
     <use style="fill:#b3cde3;stroke:#b3cde3;" x="397.306396191" xlink:href="#m7726f896e0" y="94.5849073937"/>
     <use style="fill:#b3cde3;stroke:#b3cde3;" x="410.389405282" xlink:href="#m7726f896e0" y="132.965705446"/>
     <use style="fill:#b3cde3;stroke:#b3cde3;" x="389.498802414" xlink:href="#m7726f896e0" y="91.0360016903"/>
     <use style="fill:#b3cde3;stroke:#b3cde3;" x="333.33447988" xlink:href="#m7726f896e0" y="70.9255698718"/>
     <use style="fill:#b3cde3;stroke:#b3cde3;" x="386.317962256" xlink:href="#m7726f896e0" y="94.2012292669"/>
     <use style="fill:#b3cde3;stroke:#b3cde3;" x="405.113999572" xlink:href="#m7726f896e0" y="100.795500245"/>
     <use style="fill:#b3cde3;stroke:#b3cde3;" x="396.833211796" xlink:href="#m7726f896e0" y="102.369613227"/>
     <use style="fill:#b3cde3;stroke:#b3cde3;" x="384.093558883" xlink:href="#m7726f896e0" y="68.43502062"/>
     <use style="fill:#b3cde3;stroke:#b3cde3;" x="409.451555086" xlink:href="#m7726f896e0" y="51.998"/>
     <use style="fill:#b3cde3;stroke:#b3cde3;" x="383.426220069" xlink:href="#m7726f896e0" y="96.6128578524"/>
     <use style="fill:#b3cde3;stroke:#b3cde3;" x="396.105230484" xlink:href="#m7726f896e0" y="109.527684357"/>
     <use style="fill:#b3cde3;stroke:#b3cde3;" x="384.093536574" xlink:href="#m7726f896e0" y="93.0906349496"/>
     <use style="fill:#b3cde3;stroke:#b3cde3;" x="396.105229813" xlink:href="#m7726f896e0" y="76.9823216062"/>
     <use style="fill:#b3cde3;stroke:#b3cde3;" x="392.101306246" xlink:href="#m7726f896e0" y="116.29580204"/>
     <use style="fill:#b3cde3;stroke:#b3cde3;" x="421.018370981" xlink:href="#m7726f896e0" y="85.760595049"/>
     <use style="fill:#b3cde3;stroke:#b3cde3;" x="408.460099398" xlink:href="#m7726f896e0" y="105.843531125"/>
     <use style="fill:#b3cde3;stroke:#b3cde3;" x="368.76825648" xlink:href="#m7726f896e0" y="87.6898961312"/>
     <use style="fill:#b3cde3;stroke:#b3cde3;" x="413.929030176" xlink:href="#m7726f896e0" y="70.9255160231"/>
     <use style="fill:#b3cde3;stroke:#b3cde3;" x="399.537142116" xlink:href="#m7726f896e0" y="112.723778885"/>
    </g>
   </g>
   <g id="PathCollection_2">
    <g clip-path="url(#pf5c3f920c5)">
     <use style="fill:#b3cde3;stroke:#b3cde3;" x="300.660973894" xlink:href="#m7726f896e0" y="352.735186063"/>
     <use style="fill:#b3cde3;stroke:#b3cde3;" x="331.375554824" xlink:href="#m7726f896e0" y="364.302"/>
     <use style="fill:#b3cde3;stroke:#b3cde3;" x="371.281064368" xlink:href="#m7726f896e0" y="355.116589126"/>
     <use style="fill:#b3cde3;stroke:#b3cde3;" x="381.69119335" xlink:href="#m7726f896e0" y="347.864957457"/>
     <use style="fill:#b3cde3;stroke:#b3cde3;" x="358.978181841" xlink:href="#m7726f896e0" y="334.079028991"/>
     <use style="fill:#b3cde3;stroke:#b3cde3;" x="360.870934737" xlink:href="#m7726f896e0" y="345.931174547"/>
     <use style="fill:#b3cde3;stroke:#b3cde3;" x="343.408771062" xlink:href="#m7726f896e0" y="354.838243441"/>
     <use style="fill:#b3cde3;stroke:#b3cde3;" x="336.046770157" xlink:href="#m7726f896e0" y="339.646420098"/>
     <use style="fill:#b3cde3;stroke:#b3cde3;" x="360.87093318" xlink:href="#m7726f896e0" y="364.302"/>
     <use style="fill:#b3cde3;stroke:#b3cde3;" x="314.92275735" xlink:href="#m7726f896e0" y="355.37902762"/>
     <use style="fill:#b3cde3;stroke:#b3cde3;" x="354.922285365" xlink:href="#m7726f896e0" y="346.951778814"/>
     <use style="fill:#b3cde3;stroke:#b3cde3;" x="313.185804862" xlink:href="#m7726f896e0" y="345.37448544"/>
     <use style="fill:#b3cde3;stroke:#b3cde3;" x="329.894437776" xlink:href="#m7726f896e0" y="364.302"/>
     <use style="fill:#b3cde3;stroke:#b3cde3;" x="306.370819833" xlink:href="#m7726f896e0" y="343.481734637"/>
     <use style="fill:#b3cde3;stroke:#b3cde3;" x="369.199016812" xlink:href="#m7726f896e0" y="356.294201307"/>
     <use style="fill:#b3cde3;stroke:#b3cde3;" x="345.999314171" xlink:href="#m7726f896e0" y="342.763794148"/>
     <use style="fill:#b3cde3;stroke:#b3cde3;" x="337.076341319" xlink:href="#m7726f896e0" y="364.302"/>
     <use style="fill:#b3cde3;stroke:#b3cde3;" x="396.833210862" xlink:href="#m7726f896e0" y="344.153355406"/>
     <use style="fill:#b3cde3;stroke:#b3cde3;" x="347.230085487" xlink:href="#m7726f896e0" y="346.456060931"/>
     <use style="fill:#b3cde3;stroke:#b3cde3;" x="331.722559269" xlink:href="#m7726f896e0" y="356.294206253"/>
     <use style="fill:#b3cde3;stroke:#b3cde3;" x="316.917037217" xlink:href="#m7726f896e0" y="338.980055708"/>
     <use style="fill:#b3cde3;stroke:#b3cde3;" x="377.229712437" xlink:href="#m7726f896e0" y="346.951779663"/>
     <use style="fill:#b3cde3;stroke:#b3cde3;" x="337.076341319" xlink:href="#m7726f896e0" y="364.302"/>
     <use style="fill:#b3cde3;stroke:#b3cde3;" x="366.076001588" xlink:href="#m7726f896e0" y="354.542501982"/>
     <use style="fill:#b3cde3;stroke:#b3cde3;" x="406.29696852" xlink:href="#m7726f896e0" y="364.302"/>
     <use style="fill:#b3cde3;stroke:#b3cde3;" x="372.081826222" xlink:href="#m7726f896e0" y="326.825488688"/>
     <use style="fill:#b3cde3;stroke:#b3cde3;" x="361.48329329" xlink:href="#m7726f896e0" y="364.302"/>
     <use style="fill:#b3cde3;stroke:#b3cde3;" x="300.011695811" xlink:href="#m7726f896e0" y="364.302"/>
     <use style="fill:#b3cde3;stroke:#b3cde3;" x="333.927057995" xlink:href="#m7726f896e0" y="364.302"/>
     <use style="fill:#b3cde3;stroke:#b3cde3;" x="350.460798482" xlink:href="#m7726f896e0" y="364.302"/>
     <use style="fill:#b3cde3;stroke:#b3cde3;" x="340.05063933" xlink:href="#m7726f896e0" y="354.227686725"/>
     <use style="fill:#b3cde3;stroke:#b3cde3;" x="340.050665915" xlink:href="#m7726f896e0" y="364.302"/>
     <use style="fill:#b3cde3;stroke:#b3cde3;" x="393.780358859" xlink:href="#m7726f896e0" y="345.374476216"/>
     <use style="fill:#b3cde3;stroke:#b3cde3;" x="368.441950852" xlink:href="#m7726f896e0" y="344.153373323"/>
     <use style="fill:#b3cde3;stroke:#b3cde3;" x="381.691200278" xlink:href="#m7726f896e0" y="332.270821121"/>
     <use style="fill:#b3cde3;stroke:#b3cde3;" x="351.617485262" xlink:href="#m7726f896e0" y="338.980056611"/>
     <use style="fill:#b3cde3;stroke:#b3cde3;" x="354.922285469" xlink:href="#m7726f896e0" y="364.302"/>
     <use style="fill:#b3cde3;stroke:#b3cde3;" x="312.655578453" xlink:href="#m7726f896e0" y="328.26692386"/>
     <use style="fill:#b3cde3;stroke:#b3cde3;" x="327.037999417" xlink:href="#m7726f896e0" y="354.542500868"/>
     <use style="fill:#b3cde3;stroke:#b3cde3;" x="350.460798482" xlink:href="#m7726f896e0" y="364.302"/>
     <use style="fill:#b3cde3;stroke:#b3cde3;" x="361.966737839" xlink:href="#m7726f896e0" y="352.290308073"/>
     <use style="fill:#b3cde3;stroke:#b3cde3;" x="363.184294652" xlink:href="#m7726f896e0" y="330.539406116"/>
     <use style="fill:#b3cde3;stroke:#b3cde3;" x="323.26012724" xlink:href="#m7726f896e0" y="364.302"/>
     <use style="fill:#b3cde3;stroke:#b3cde3;" x="334.423566828" xlink:href="#m7726f896e0" y="364.302"/>
     <use style="fill:#b3cde3;stroke:#b3cde3;" x="366.075999891" xlink:href="#m7726f896e0" y="364.302"/>
     <use style="fill:#b3cde3;stroke:#b3cde3;" x="348.058460451" xlink:href="#m7726f896e0" y="351.809830257"/>
     <use style="fill:#b3cde3;stroke:#b3cde3;" x="314.922757915" xlink:href="#m7726f896e0" y="346.456056206"/>
     <use style="fill:#b3cde3;stroke:#b3cde3;" x="352.297872872" xlink:href="#m7726f896e0" y="353.891870886"/>
     <use style="fill:#b3cde3;stroke:#b3cde3;" x="330.586909568" xlink:href="#m7726f896e0" y="344.153354165"/>
     <use style="fill:#b3cde3;stroke:#b3cde3;" x="383.706080614" xlink:href="#m7726f896e0" y="354.838245356"/>
     <use style="fill:#b3cde3;stroke:#b3cde3;" x="389.039528051" xlink:href="#m7726f896e0" y="353.891867593"/>
     <use style="fill:#b3cde3;stroke:#b3cde3;" x="381.691199989" xlink:href="#m7726f896e0" y="299.238666943"/>
     <use style="fill:#b3cde3;stroke:#b3cde3;" x="317.542268634" xlink:href="#m7726f896e0" y="352.735186218"/>
     <use style="fill:#b3cde3;stroke:#b3cde3;" x="314.922757726" xlink:href="#m7726f896e0" y="328.610112787"/>
     <use style="fill:#b3cde3;stroke:#b3cde3;" x="357.999170936" xlink:href="#m7726f896e0" y="355.379029265"/>
     <use style="fill:#b3cde3;stroke:#b3cde3;" x="328.153372004" xlink:href="#m7726f896e0" y="353.532897449"/>
     <use style="fill:#b3cde3;stroke:#b3cde3;" x="353.483117583" xlink:href="#m7726f896e0" y="345.374491362"/>
     <use style="fill:#b3cde3;stroke:#b3cde3;" x="307.518999776" xlink:href="#m7726f896e0" y="335.023500611"/>
     <use style="fill:#b3cde3;stroke:#b3cde3;" x="346.557002451" xlink:href="#m7726f896e0" y="344.78300011"/>
     <use style="fill:#b3cde3;stroke:#b3cde3;" x="343.408773335" xlink:href="#m7726f896e0" y="345.374485809"/>
     <use style="fill:#b3cde3;stroke:#b3cde3;" x="333.334430269" xlink:href="#m7726f896e0" y="345.374483364"/>
     <use style="fill:#b3cde3;stroke:#b3cde3;" x="358.978182557" xlink:href="#m7726f896e0" y="344.153355747"/>
     <use style="fill:#b3cde3;stroke:#b3cde3;" x="375.597462544" xlink:href="#m7726f896e0" y="364.302"/>
     <use style="fill:#b3cde3;stroke:#b3cde3;" x="385.06745596" xlink:href="#m7726f896e0" y="352.735186334"/>
     <use style="fill:#b3cde3;stroke:#b3cde3;" x="340.05063933" xlink:href="#m7726f896e0" y="354.227686725"/>
     <use style="fill:#b3cde3;stroke:#b3cde3;" x="373.631739553" xlink:href="#m7726f896e0" y="345.374485257"/>
     <use style="fill:#b3cde3;stroke:#b3cde3;" x="367.980292462" xlink:href="#m7726f896e0" y="350.723565267"/>
     <use style="fill:#b3cde3;stroke:#b3cde3;" x="313.185804978" xlink:href="#m7726f896e0" y="354.838243231"/>
     <use style="fill:#b3cde3;stroke:#b3cde3;" x="340.050666665" xlink:href="#m7726f896e0" y="364.302"/>
     <use style="fill:#b3cde3;stroke:#b3cde3;" x="344.214720007" xlink:href="#m7726f896e0" y="356.294206001"/>
     <use style="fill:#b3cde3;stroke:#b3cde3;" x="352.297881148" xlink:href="#m7726f896e0" y="364.302"/>
     <use style="fill:#b3cde3;stroke:#b3cde3;" x="368.768293223" xlink:href="#m7726f896e0" y="346.456071772"/>
     <use style="fill:#b3cde3;stroke:#b3cde3;" x="390.306484026" xlink:href="#m7726f896e0" y="337.533091011"/>
     <use style="fill:#b3cde3;stroke:#b3cde3;" x="321.123149866" xlink:href="#m7726f896e0" y="354.227678091"/>
     <use style="fill:#b3cde3;stroke:#b3cde3;" x="372.768227002" xlink:href="#m7726f896e0" y="342.763794135"/>
     <use style="fill:#b3cde3;stroke:#b3cde3;" x="386.317923851" xlink:href="#m7726f896e0" y="355.861351752"/>
     <use style="fill:#b3cde3;stroke:#b3cde3;" x="331.722568536" xlink:href="#m7726f896e0" y="348.286406487"/>
     <use style="fill:#b3cde3;stroke:#b3cde3;" x="357.999170936" xlink:href="#m7726f896e0" y="355.379029265"/>
     <use style="fill:#b3cde3;stroke:#b3cde3;" x="336.460964061" xlink:href="#m7726f896e0" y="346.456058168"/>
     <use style="fill:#b3cde3;stroke:#b3cde3;" x="359.745513183" xlink:href="#m7726f896e0" y="341.168371949"/>
     <use style="fill:#b3cde3;stroke:#b3cde3;" x="354.922285469" xlink:href="#m7726f896e0" y="364.302"/>
     <use style="fill:#b3cde3;stroke:#b3cde3;" x="399.537142849" xlink:href="#m7726f896e0" y="346.951779447"/>
     <use style="fill:#b3cde3;stroke:#b3cde3;" x="314.9227673" xlink:href="#m7726f896e0" y="337.533086873"/>
     <use style="fill:#b3cde3;stroke:#b3cde3;" x="303.11148369" xlink:href="#m7726f896e0" y="345.374485742"/>
     <use style="fill:#b3cde3;stroke:#b3cde3;" x="358.978180957" xlink:href="#m7726f896e0" y="349.430384495"/>
     <use style="fill:#b3cde3;stroke:#b3cde3;" x="329.640545064" xlink:href="#m7726f896e0" y="345.931171698"/>
     <use style="fill:#b3cde3;stroke:#b3cde3;" x="358.978179223" xlink:href="#m7726f896e0" y="354.227679669"/>
     <use style="fill:#b3cde3;stroke:#b3cde3;" x="390.3064821" xlink:href="#m7726f896e0" y="364.302"/>
     <use style="fill:#b3cde3;stroke:#b3cde3;" x="319.230394753" xlink:href="#m7726f896e0" y="355.116588762"/>
     <use style="fill:#b3cde3;stroke:#b3cde3;" x="368.441937693" xlink:href="#m7726f896e0" y="334.079034498"/>
     <use style="fill:#b3cde3;stroke:#b3cde3;" x="379.537413583" xlink:href="#m7726f896e0" y="355.379029694"/>
     <use style="fill:#b3cde3;stroke:#b3cde3;" x="373.631739553" xlink:href="#m7726f896e0" y="345.374485257"/>
     <use style="fill:#b3cde3;stroke:#b3cde3;" x="403.854708304" xlink:href="#m7726f896e0" y="364.302"/>
     <use style="fill:#b3cde3;stroke:#b3cde3;" x="377.229712437" xlink:href="#m7726f896e0" y="346.951779663"/>
     <use style="fill:#b3cde3;stroke:#b3cde3;" x="343.40877348" xlink:href="#m7726f896e0" y="364.302"/>
     <use style="fill:#b3cde3;stroke:#b3cde3;" x="325.691854421" xlink:href="#m7726f896e0" y="337.533084641"/>
     <use style="fill:#b3cde3;stroke:#b3cde3;" x="331.722559269" xlink:href="#m7726f896e0" y="356.294206253"/>
     <use style="fill:#b3cde3;stroke:#b3cde3;" x="377.905696856" xlink:href="#m7726f896e0" y="344.153359607"/>
     <use style="fill:#b3cde3;stroke:#b3cde3;" x="356.066256354" xlink:href="#m7726f896e0" y="364.302"/>
     <use style="fill:#b3cde3;stroke:#b3cde3;" x="381.69120046" xlink:href="#m7726f896e0" y="364.302"/>
     <use style="fill:#b3cde3;stroke:#b3cde3;" x="353.748196554" xlink:href="#m7726f896e0" y="328.266933678"/>
     <use style="fill:#b3cde3;stroke:#b3cde3;" x="322.700426685" xlink:href="#m7726f896e0" y="319.687146556"/>
     <use style="fill:#b3cde3;stroke:#b3cde3;" x="377.90565002" xlink:href="#m7726f896e0" y="354.227657101"/>
     <use style="fill:#b3cde3;stroke:#b3cde3;" x="368.186161978" xlink:href="#m7726f896e0" y="364.302"/>
     <use style="fill:#b3cde3;stroke:#b3cde3;" x="385.594998891" xlink:href="#m7726f896e0" y="344.783001052"/>
     <use style="fill:#b3cde3;stroke:#b3cde3;" x="336.460845491" xlink:href="#m7726f896e0" y="355.379034874"/>
     <use style="fill:#b3cde3;stroke:#b3cde3;" x="349.51442272" xlink:href="#m7726f896e0" y="364.302"/>
     <use style="fill:#b3cde3;stroke:#b3cde3;" x="368.186161978" xlink:href="#m7726f896e0" y="364.302"/>
     <use style="fill:#b3cde3;stroke:#b3cde3;" x="379.088665292" xlink:href="#m7726f896e0" y="364.302"/>
     <use style="fill:#b3cde3;stroke:#b3cde3;" x="381.691193871" xlink:href="#m7726f896e0" y="327.560354541"/>
     <use style="fill:#b3cde3;stroke:#b3cde3;" x="377.90565002" xlink:href="#m7726f896e0" y="354.227657101"/>
     <use style="fill:#b3cde3;stroke:#b3cde3;" x="340.05066575" xlink:href="#m7726f896e0" y="364.302"/>
     <use style="fill:#b3cde3;stroke:#b3cde3;" x="375.835500107" xlink:href="#m7726f896e0" y="354.542499613"/>
     <use style="fill:#b3cde3;stroke:#b3cde3;" x="356.316503781" xlink:href="#m7726f896e0" y="344.783003617"/>
     <use style="fill:#b3cde3;stroke:#b3cde3;" x="366.075998682" xlink:href="#m7726f896e0" y="344.783000959"/>
     <use style="fill:#b3cde3;stroke:#b3cde3;" x="376.259824478" xlink:href="#m7726f896e0" y="356.68483006"/>
     <use style="fill:#b3cde3;stroke:#b3cde3;" x="412.921599518" xlink:href="#m7726f896e0" y="327.560353403"/>
     <use style="fill:#b3cde3;stroke:#b3cde3;" x="374.751108897" xlink:href="#m7726f896e0" y="353.148286145"/>
     <use style="fill:#b3cde3;stroke:#b3cde3;" x="408.460113299" xlink:href="#m7726f896e0" y="321.22558495"/>
     <use style="fill:#b3cde3;stroke:#b3cde3;" x="320.874105313" xlink:href="#m7726f896e0" y="352.290308837"/>
     <use style="fill:#b3cde3;stroke:#b3cde3;" x="336.460964699" xlink:href="#m7726f896e0" y="337.533086762"/>
     <use style="fill:#b3cde3;stroke:#b3cde3;" x="321.123150003" xlink:href="#m7726f896e0" y="334.079035621"/>
     <use style="fill:#b3cde3;stroke:#b3cde3;" x="307.519000824" xlink:href="#m7726f896e0" y="354.542500878"/>
     <use style="fill:#b3cde3;stroke:#b3cde3;" x="377.229715556" xlink:href="#m7726f896e0" y="355.626889708"/>
     <use style="fill:#b3cde3;stroke:#b3cde3;" x="376.626808968" xlink:href="#m7726f896e0" y="341.168370337"/>
     <use style="fill:#b3cde3;stroke:#b3cde3;" x="321.946088413" xlink:href="#m7726f896e0" y="341.450488754"/>
     <use style="fill:#b3cde3;stroke:#b3cde3;" x="352.297872872" xlink:href="#m7726f896e0" y="353.891870886"/>
     <use style="fill:#b3cde3;stroke:#b3cde3;" x="348.058463692" xlink:href="#m7726f896e0" y="339.646424318"/>
    </g>
   </g>
   <g id="line2d_1">
    <path clip-path="url(#pf5c3f920c5)" d="M 288 51.998 
L 290.554917 52.018903 
L 293.10915 52.081606 
L 298.212829 52.332333 
L 303.305572 52.749915 
L 308.381926 53.333902 
L 313.436454 54.08367 
L 318.463744 54.998417 
L 323.458413 56.077162 
L 328.415112 57.31875 
L 333.328533 58.721853 
L 338.193415 60.284966 
L 343.004549 62.006418 
L 347.756783 63.884363 
L 352.445028 65.916792 
L 357.064264 68.101528 
L 361.609543 70.436231 
L 366.076 72.918401 
L 370.458851 75.545381 
L 374.753403 78.314357 
L 378.955057 81.222365 
L 383.059315 84.266289 
L 387.06178 87.442872 
L 390.958168 90.74871 
L 394.744305 94.180265 
L 398.416138 97.733862 
L 401.969735 101.405695 
L 405.40129 105.191832 
L 408.707128 109.08822 
L 411.883711 113.090685 
L 414.927635 117.194943 
L 417.835643 121.396597 
L 420.604619 125.691149 
L 423.231599 130.074 
L 425.713769 134.540457 
L 428.048472 139.085736 
L 430.233208 143.704972 
L 432.265637 148.393217 
L 434.143582 153.145451 
L 435.865034 157.956585 
L 437.428147 162.821467 
L 438.83125 167.734888 
L 440.072838 172.691587 
L 441.151583 177.686256 
L 442.06633 182.713546 
L 442.816098 187.768074 
L 443.400085 192.844428 
L 443.817667 197.937171 
L 444.068394 203.04085 
L 444.152 208.15 
L 444.068394 213.25915 
L 443.817667 218.362829 
L 443.400085 223.455572 
L 442.816098 228.531926 
L 442.06633 233.586454 
L 441.151583 238.613744 
L 440.072838 243.608413 
L 438.83125 248.565112 
L 437.428147 253.478533 
L 435.865034 258.343415 
L 434.143582 263.154549 
L 432.265637 267.906783 
L 430.233208 272.595028 
L 428.048472 277.214264 
L 425.713769 281.759543 
L 423.231599 286.226 
L 420.604619 290.608851 
L 417.835643 294.903403 
L 414.927635 299.105057 
L 411.883711 303.209315 
L 408.707128 307.21178 
L 405.40129 311.108168 
L 401.969735 314.894305 
L 398.416138 318.566138 
L 394.744305 322.119735 
L 390.958168 325.55129 
L 387.06178 328.857128 
L 383.059315 332.033711 
L 378.955057 335.077635 
L 374.753403 337.985643 
L 370.458851 340.754619 
L 366.076 343.381599 
L 361.609543 345.863769 
L 357.064264 348.198472 
L 352.445028 350.383208 
L 347.756783 352.415637 
L 343.004549 354.293582 
L 338.193415 356.015034 
L 333.328533 357.578147 
L 328.415112 358.98125 
L 323.458413 360.222838 
L 318.463744 361.301583 
L 313.436454 362.21633 
L 308.381926 362.966098 
L 303.305572 363.550085 
L 298.212829 363.967667 
L 293.10915 364.218394 
L 288 364.302 
L 282.89085 364.218394 
L 277.787171 363.967667 
L 272.694428 363.550085 
L 267.618074 362.966098 
L 262.563546 362.21633 
L 257.536256 361.301583 
L 252.541587 360.222838 
L 247.584888 358.98125 
L 242.671467 357.578147 
L 237.806585 356.015034 
L 232.995451 354.293582 
L 228.243217 352.415637 
L 223.554972 350.383208 
L 218.935736 348.198472 
L 214.390457 345.863769 
L 209.924 343.381599 
L 205.541149 340.754619 
L 201.246597 337.985643 
L 197.044943 335.077635 
L 192.940685 332.033711 
L 188.93822 328.857128 
L 185.041832 325.55129 
L 181.255695 322.119735 
L 177.583862 318.566138 
L 174.030265 314.894305 
L 170.59871 311.108168 
L 167.292872 307.21178 
L 164.116289 303.209315 
L 161.072365 299.105057 
L 158.164357 294.903403 
L 155.395381 290.608851 
L 152.768401 286.226 
L 150.286231 281.759543 
L 147.951528 277.214264 
L 145.766792 272.595028 
L 143.734363 267.906783 
L 141.856418 263.154549 
L 140.134966 258.343415 
L 138.571853 253.478533 
L 137.16875 248.565112 
L 135.927162 243.608413 
L 134.848417 238.613744 
L 133.93367 233.586454 
L 133.183902 228.531926 
L 132.599915 223.455572 
L 132.182333 218.362829 
L 131.931606 213.25915 
L 131.848 208.15 
L 131.931606 203.04085 
L 132.182333 197.937171 
L 132.599915 192.844428 
L 133.183902 187.768074 
L 133.93367 182.713546 
L 134.848417 177.686256 
L 135.927162 172.691587 
L 137.16875 167.734888 
L 138.571853 162.821467 
L 140.134966 157.956585 
L 141.856418 153.145451 
L 143.734363 148.393217 
L 145.766792 143.704972 
L 147.951528 139.085736 
L 150.286231 134.540457 
L 152.768401 130.074 
L 155.395381 125.691149 
L 158.164357 121.396597 
L 161.072365 117.194943 
L 164.116289 113.090685 
L 167.292872 109.08822 
L 170.59871 105.191832 
L 174.030265 101.405695 
L 177.583862 97.733862 
L 181.255695 94.180265 
L 185.041832 90.74871 
L 188.93822 87.442872 
L 192.940685 84.266289 
L 197.044943 81.222365 
L 201.246597 78.314357 
L 205.541149 75.545381 
L 209.924 72.918401 
L 214.390457 70.436231 
L 218.935736 68.101528 
L 223.554972 65.916792 
L 228.243217 63.884363 
L 232.995451 62.006418 
L 237.806585 60.284966 
L 242.671467 58.721853 
L 247.584888 57.31875 
L 252.541587 56.077162 
L 257.536256 54.998417 
L 262.563546 54.08367 
L 267.618074 53.333902 
L 272.694428 52.749915 
L 277.787171 52.332333 
L 282.89085 52.081606 
L 288 51.998 
L 288 51.998 
" style="fill:none;stroke:#ffffff;stroke-linecap:square;stroke-width:2.0;"/>
   </g>
   <g id="line2d_2">
    <path clip-path="url(#pf5c3f920c5)" d="M 398.416138 97.733862 
" style="fill:none;stroke:#fbb4ae;stroke-linecap:square;"/>
    <defs>
     <path d="M 0 8 
C 2.121625 8 4.156639 7.15707 5.656854 5.656854 
C 7.15707 4.156639 8 2.121625 8 0 
C 8 -2.121625 7.15707 -4.156639 5.656854 -5.656854 
C 4.156639 -7.15707 2.121625 -8 0 -8 
C -2.121625 -8 -4.156639 -7.15707 -5.656854 -5.656854 
C -7.15707 -4.156639 -8 -2.121625 -8 0 
C -8 2.121625 -7.15707 4.156639 -5.656854 5.656854 
C -4.156639 7.15707 -2.121625 8 0 8 
z
" id="md40e3d4098" style="stroke:#000000;stroke-width:0.5;"/>
    </defs>
    <g clip-path="url(#pf5c3f920c5)">
     <use style="fill:#fbb4ae;stroke:#000000;stroke-width:0.5;" x="398.416138096" xlink:href="#md40e3d4098" y="97.7338619042"/>
    </g>
   </g>
   <g id="line2d_3">
    <path clip-path="url(#pf5c3f920c5)" d="M 350.4608 351.265672 
" style="fill:none;stroke:#fbb4ae;stroke-linecap:square;"/>
    <g clip-path="url(#pf5c3f920c5)">
     <use style="fill:#fbb4ae;stroke:#000000;stroke-width:0.5;" x="350.4608" xlink:href="#md40e3d4098" y="351.265671984"/>
    </g>
   </g>
  </g>
 </g>
 <defs>
  <clipPath id="pf5c3f920c5">
   <rect height="390.38" width="390.38" x="92.81" y="12.96"/>
  </clipPath>
 </defs>
</svg>
