<?xml version="1.0" encoding="utf-8" standalone="no"?>
<!DOCTYPE svg PUBLIC "-//W3C//DTD SVG 1.1//EN"
  "http://www.w3.org/Graphics/SVG/1.1/DTD/svg11.dtd">
<!-- Created with matplotlib (http://matplotlib.org/) -->
<svg height="432pt" version="1.1" viewBox="0 0 576 432" width="576pt" xmlns="http://www.w3.org/2000/svg" xmlns:xlink="http://www.w3.org/1999/xlink">
 <defs>
  <style type="text/css">
*{stroke-linecap:butt;stroke-linejoin:round;stroke-miterlimit:100000;}
  </style>
 </defs>
 <g id="figure_1">
  <g id="patch_1">
   <path d="M 0 432 
L 576 432 
L 576 0 
L 0 0 
L 0 432 
z
" style="fill:none;"/>
  </g>
  <g id="axes_1">
   <g id="PathCollection_1">
    <defs>
     <path d="M 0 0.707107 
C 0.187527 0.707107 0.367398 0.632602 0.5 0.5 
C 0.632602 0.367398 0.707107 0.187527 0.707107 0 
C 0.707107 -0.187527 0.632602 -0.367398 0.5 -0.5 
C 0.367398 -0.632602 0.187527 -0.707107 0 -0.707107 
C -0.187527 -0.707107 -0.367398 -0.632602 -0.5 -0.5 
C -0.632602 -0.367398 -0.707107 -0.187527 -0.707107 0 
C -0.707107 0.187527 -0.632602 0.367398 -0.5 0.5 
C -0.367398 0.632602 -0.187527 0.707107 0 0.707107 
z
" id="m33ae0bc305" style="stroke:#b3cde3;"/>
    </defs>
    <g clip-path="url(#p70e645a35b)">
     <use style="fill:#b3cde3;stroke:#b3cde3;" x="373.631758169" xlink:href="#m33ae0bc305" y="89.8530457077"/>
     <use style="fill:#b3cde3;stroke:#b3cde3;" x="406.296969041" xlink:href="#m33ae0bc305" y="102.369613316"/>
     <use style="fill:#b3cde3;stroke:#b3cde3;" x="387.369453993" xlink:href="#m33ae0bc305" y="132.59258961"/>
     <use style="fill:#b3cde3;stroke:#b3cde3;" x="387.369437227" xlink:href="#m33ae0bc305" y="72.146696339"/>
     <use style="fill:#b3cde3;stroke:#b3cde3;" x="384.093537244" xlink:href="#m33ae0bc305" y="109.527684463"/>
     <use style="fill:#b3cde3;stroke:#b3cde3;" x="417.383087118" xlink:href="#m33ae0bc305" y="127.381724808"/>
     <use style="fill:#b3cde3;stroke:#b3cde3;" x="433.382896236" xlink:href="#m33ae0bc305" y="87.6898868511"/>
     <use style="fill:#b3cde3;stroke:#b3cde3;" x="400.77644506" xlink:href="#m33ae0bc305" y="141.227712018"/>
     <use style="fill:#b3cde3;stroke:#b3cde3;" x="401.075584977" xlink:href="#m33ae0bc305" y="96.6128575592"/>
     <use style="fill:#b3cde3;stroke:#b3cde3;" x="412.120820381" xlink:href="#m33ae0bc305" y="101.966640211"/>
     <use style="fill:#b3cde3;stroke:#b3cde3;" x="399.537141059" xlink:href="#m33ae0bc305" y="94.5849099026"/>
     <use style="fill:#b3cde3;stroke:#b3cde3;" x="388.383427149" xlink:href="#m33ae0bc305" y="95.3735557699"/>
     <use style="fill:#b3cde3;stroke:#b3cde3;" x="432.99828448" xlink:href="#m33ae0bc305" y="130.074000555"/>
     <use style="fill:#b3cde3;stroke:#b3cde3;" x="396.833211752" xlink:href="#m33ae0bc305" y="112.443936837"/>
     <use style="fill:#b3cde3;stroke:#b3cde3;" x="411.844688312" xlink:href="#m33ae0bc305" y="60.9209722618"/>
     <use style="fill:#b3cde3;stroke:#b3cde3;" x="411.844689268" xlink:href="#m33ae0bc305" y="78.7669153255"/>
     <use style="fill:#b3cde3;stroke:#b3cde3;" x="393.508109621" xlink:href="#m33ae0bc305" y="86.6984440994"/>
     <use style="fill:#b3cde3;stroke:#b3cde3;" x="363.557419769" xlink:href="#m33ae0bc305" y="99.3167869891"/>
     <use style="fill:#b3cde3;stroke:#b3cde3;" x="362.681388816" xlink:href="#m33ae0bc305" y="82.4666817513"/>
     <use style="fill:#b3cde3;stroke:#b3cde3;" x="398.224947527" xlink:href="#m33ae0bc305" y="114.45881151"/>
     <use style="fill:#b3cde3;stroke:#b3cde3;" x="370.668703704" xlink:href="#m33ae0bc305" y="166.509467087"/>
     <use style="fill:#b3cde3;stroke:#b3cde3;" x="385.067432182" xlink:href="#m33ae0bc305" y="98.2652648306"/>
     <use style="fill:#b3cde3;stroke:#b3cde3;" x="419.496420028" xlink:href="#m33ae0bc305" y="51.998"/>
     <use style="fill:#b3cde3;stroke:#b3cde3;" x="411.844689268" xlink:href="#m33ae0bc305" y="78.7669153255"/>
     <use style="fill:#b3cde3;stroke:#b3cde3;" x="415.760728017" xlink:href="#m33ae0bc305" y="102.369614003"/>
     <use style="fill:#b3cde3;stroke:#b3cde3;" x="416.595763673" xlink:href="#m33ae0bc305" y="135.279067471"/>
     <use style="fill:#b3cde3;stroke:#b3cde3;" x="368.441939383" xlink:href="#m33ae0bc305" y="112.443935431"/>
     <use style="fill:#b3cde3;stroke:#b3cde3;" x="401.075587886" xlink:href="#m33ae0bc305" y="114.458799027"/>
     <use style="fill:#b3cde3;stroke:#b3cde3;" x="409.451554462" xlink:href="#m33ae0bc305" y="96.6128583736"/>
     <use style="fill:#b3cde3;stroke:#b3cde3;" x="413.929031342" xlink:href="#m33ae0bc305" y="118.244304524"/>
     <use style="fill:#b3cde3;stroke:#b3cde3;" x="375.835496702" xlink:href="#m33ae0bc305" y="91.0359999843"/>
     <use style="fill:#b3cde3;stroke:#b3cde3;" x="381.691192686" xlink:href="#m33ae0bc305" y="79.5542346219"/>
     <use style="fill:#b3cde3;stroke:#b3cde3;" x="400.776486336" xlink:href="#m33ae0bc305" y="74.3054193936"/>
     <use style="fill:#b3cde3;stroke:#b3cde3;" x="394.183356844" xlink:href="#m33ae0bc305" y="108.052563327"/>
     <use style="fill:#b3cde3;stroke:#b3cde3;" x="407.410351873" xlink:href="#m33ae0bc305" y="72.8182670736"/>
     <use style="fill:#b3cde3;stroke:#b3cde3;" x="360.070150034" xlink:href="#m33ae0bc305" y="84.8721066561"/>
     <use style="fill:#b3cde3;stroke:#b3cde3;" x="389.039530044" xlink:href="#m33ae0bc305" y="72.8182661124"/>
     <use style="fill:#b3cde3;stroke:#b3cde3;" x="407.410351799" xlink:href="#m33ae0bc305" y="93.6385345066"/>
     <use style="fill:#b3cde3;stroke:#b3cde3;" x="433.741845131" xlink:href="#m33ae0bc305" y="107.110473761"/>
     <use style="fill:#b3cde3;stroke:#b3cde3;" x="407.410352067" xlink:href="#m33ae0bc305" y="145.68919948"/>
     <use style="fill:#b3cde3;stroke:#b3cde3;" x="426.801775862" xlink:href="#m33ae0bc305" y="118.920281057"/>
     <use style="fill:#b3cde3;stroke:#b3cde3;" x="381.69120782" xlink:href="#m33ae0bc305" y="88.7396471415"/>
     <use style="fill:#b3cde3;stroke:#b3cde3;" x="379.854114808" xlink:href="#m33ae0bc305" y="83.2284001353"/>
     <use style="fill:#b3cde3;stroke:#b3cde3;" x="402.511460098" xlink:href="#m33ae0bc305" y="107.110476533"/>
     <use style="fill:#b3cde3;stroke:#b3cde3;" x="386.622314478" xlink:href="#m33ae0bc305" y="160.103230754"/>
     <use style="fill:#b3cde3;stroke:#b3cde3;" x="414.873500124" xlink:href="#m33ae0bc305" y="81.2764998764"/>
     <use style="fill:#b3cde3;stroke:#b3cde3;" x="381.691198712" xlink:href="#m33ae0bc305" y="107.110471776"/>
     <use style="fill:#b3cde3;stroke:#b3cde3;" x="372.081842182" xlink:href="#m33ae0bc305" y="101.96664376"/>
     <use style="fill:#b3cde3;stroke:#b3cde3;" x="371.281065271" xlink:href="#m33ae0bc305" y="79.5542358019"/>
     <use style="fill:#b3cde3;stroke:#b3cde3;" x="414.873499635" xlink:href="#m33ae0bc305" y="110.555000372"/>
     <use style="fill:#b3cde3;stroke:#b3cde3;" x="377.229763685" xlink:href="#m33ae0bc305" y="60.6731226354"/>
     <use style="fill:#b3cde3;stroke:#b3cde3;" x="403.059366005" xlink:href="#m33ae0bc305" y="124.068151353"/>
     <use style="fill:#b3cde3;stroke:#b3cde3;" x="412.921673451" xlink:href="#m33ae0bc305" y="91.0360063689"/>
     <use style="fill:#b3cde3;stroke:#b3cde3;" x="409.451554462" xlink:href="#m33ae0bc305" y="96.6128583736"/>
     <use style="fill:#b3cde3;stroke:#b3cde3;" x="424.003354295" xlink:href="#m33ae0bc305" y="118.244304449"/>
     <use style="fill:#b3cde3;stroke:#b3cde3;" x="434.688241628" xlink:href="#m33ae0bc305" y="62.0723222653"/>
     <use style="fill:#b3cde3;stroke:#b3cde3;" x="361.483292152" xlink:href="#m33ae0bc305" y="124.868933215"/>
     <use style="fill:#b3cde3;stroke:#b3cde3;" x="405.113998842" xlink:href="#m33ae0bc305" y="100.795500376"/>
     <use style="fill:#b3cde3;stroke:#b3cde3;" x="393.780386644" xlink:href="#m33ae0bc305" y="89.8530302601"/>
     <use style="fill:#b3cde3;stroke:#b3cde3;" x="383.706051893" xlink:href="#m33ae0bc305" y="89.8530546593"/>
     <use style="fill:#b3cde3;stroke:#b3cde3;" x="393.780386265" xlink:href="#m33ae0bc305" y="118.244300192"/>
     <use style="fill:#b3cde3;stroke:#b3cde3;" x="412.921601643" xlink:href="#m33ae0bc305" y="97.9250596818"/>
     <use style="fill:#b3cde3;stroke:#b3cde3;" x="413.929006229" xlink:href="#m33ae0bc305" y="108.780566008"/>
     <use style="fill:#b3cde3;stroke:#b3cde3;" x="417.383087118" xlink:href="#m33ae0bc305" y="127.381724808"/>
     <use style="fill:#b3cde3;stroke:#b3cde3;" x="394.840841804" xlink:href="#m33ae0bc305" y="51.998"/>
     <use style="fill:#b3cde3;stroke:#b3cde3;" x="399.537142516" xlink:href="#m33ae0bc305" y="95.0744141099"/>
     <use style="fill:#b3cde3;stroke:#b3cde3;" x="383.706062326" xlink:href="#m33ae0bc305" y="118.2442978"/>
     <use style="fill:#b3cde3;stroke:#b3cde3;" x="397.306399537" xlink:href="#m33ae0bc305" y="91.0360011042"/>
     <use style="fill:#b3cde3;stroke:#b3cde3;" x="377.229722167" xlink:href="#m33ae0bc305" y="104.048670163"/>
     <use style="fill:#b3cde3;stroke:#b3cde3;" x="408.116921762" xlink:href="#m33ae0bc305" y="84.8721065241"/>
     <use style="fill:#b3cde3;stroke:#b3cde3;" x="394.840840739" xlink:href="#m33ae0bc305" y="112.056449648"/>
     <use style="fill:#b3cde3;stroke:#b3cde3;" x="390.306482573" xlink:href="#m33ae0bc305" y="96.6128576466"/>
     <use style="fill:#b3cde3;stroke:#b3cde3;" x="390.61418133" xlink:href="#m33ae0bc305" y="84.3052963963"/>
     <use style="fill:#b3cde3;stroke:#b3cde3;" x="371.281065271" xlink:href="#m33ae0bc305" y="79.5542358019"/>
     <use style="fill:#b3cde3;stroke:#b3cde3;" x="388.383422486" xlink:href="#m33ae0bc305" y="78.0233335311"/>
     <use style="fill:#b3cde3;stroke:#b3cde3;" x="433.382896649" xlink:href="#m33ae0bc305" y="78.7669068044"/>
     <use style="fill:#b3cde3;stroke:#b3cde3;" x="412.92159805" xlink:href="#m33ae0bc305" y="79.5542346265"/>
     <use style="fill:#b3cde3;stroke:#b3cde3;" x="379.854114808" xlink:href="#m33ae0bc305" y="83.2284001353"/>
     <use style="fill:#b3cde3;stroke:#b3cde3;" x="386.317912217" xlink:href="#m33ae0bc305" y="102.641885363"/>
     <use style="fill:#b3cde3;stroke:#b3cde3;" x="383.706051893" xlink:href="#m33ae0bc305" y="89.8530546593"/>
     <use style="fill:#b3cde3;stroke:#b3cde3;" x="410.690855963" xlink:href="#m33ae0bc305" y="95.373556044"/>
     <use style="fill:#b3cde3;stroke:#b3cde3;" x="406.296969041" xlink:href="#m33ae0bc305" y="102.369613316"/>
     <use style="fill:#b3cde3;stroke:#b3cde3;" x="417.383083647" xlink:href="#m33ae0bc305" y="95.0744221688"/>
     <use style="fill:#b3cde3;stroke:#b3cde3;" x="398.224940887" xlink:href="#m33ae0bc305" y="93.6385337181"/>
     <use style="fill:#b3cde3;stroke:#b3cde3;" x="381.691192686" xlink:href="#m33ae0bc305" y="79.5542346219"/>
     <use style="fill:#b3cde3;stroke:#b3cde3;" x="377.229717709" xlink:href="#m33ae0bc305" y="69.3482244836"/>
     <use style="fill:#b3cde3;stroke:#b3cde3;" x="425.781176225" xlink:href="#m33ae0bc305" y="104.048668685"/>
     <use style="fill:#b3cde3;stroke:#b3cde3;" x="394.840840829" xlink:href="#m33ae0bc305" y="88.0330911114"/>
     <use style="fill:#b3cde3;stroke:#b3cde3;" x="366.075999767" xlink:href="#m33ae0bc305" y="100.795501259"/>
     <use style="fill:#b3cde3;stroke:#b3cde3;" x="396.105231102" xlink:href="#m33ae0bc305" y="117.746208905"/>
     <use style="fill:#b3cde3;stroke:#b3cde3;" x="418.126665609" xlink:href="#m33ae0bc305" y="85.4591439618"/>
     <use style="fill:#b3cde3;stroke:#b3cde3;" x="405.113998842" xlink:href="#m33ae0bc305" y="100.795500376"/>
     <use style="fill:#b3cde3;stroke:#b3cde3;" x="404.113023769" xlink:href="#m33ae0bc305" y="89.4744806387"/>
     <use style="fill:#b3cde3;stroke:#b3cde3;" x="399.537142116" xlink:href="#m33ae0bc305" y="104.048667249"/>
     <use style="fill:#b3cde3;stroke:#b3cde3;" x="427.270704454" xlink:href="#m33ae0bc305" y="86.6984492363"/>
     <use style="fill:#b3cde3;stroke:#b3cde3;" x="411.844699514" xlink:href="#m33ae0bc305" y="114.458804757"/>
     <use style="fill:#b3cde3;stroke:#b3cde3;" x="408.460111343" xlink:href="#m33ae0bc305" y="105.843518038"/>
     <use style="fill:#b3cde3;stroke:#b3cde3;" x="432.585178567" xlink:href="#m33ae0bc305" y="85.7605819955"/>
     <use style="fill:#b3cde3;stroke:#b3cde3;" x="416.59576366" xlink:href="#m33ae0bc305" y="124.86893345"/>
     <use style="fill:#b3cde3;stroke:#b3cde3;" x="405.113998801" xlink:href="#m33ae0bc305" y="149.593000635"/>
     <use style="fill:#b3cde3;stroke:#b3cde3;" x="400.776405955" xlink:href="#m33ae0bc305" y="118.920284297"/>
     <use style="fill:#b3cde3;stroke:#b3cde3;" x="411.277894332" xlink:href="#m33ae0bc305" y="100.044769676"/>
     <use style="fill:#b3cde3;stroke:#b3cde3;" x="389.039526438" xlink:href="#m33ae0bc305" y="104.048666087"/>
     <use style="fill:#b3cde3;stroke:#b3cde3;" x="414.873487691" xlink:href="#m33ae0bc305" y="61.7574998458"/>
     <use style="fill:#b3cde3;stroke:#b3cde3;" x="381.691190761" xlink:href="#m33ae0bc305" y="116.612629977"/>
     <use style="fill:#b3cde3;stroke:#b3cde3;" x="408.662905656" xlink:href="#m33ae0bc305" y="83.2283973438"/>
     <use style="fill:#b3cde3;stroke:#b3cde3;" x="407.410351496" xlink:href="#m33ae0bc305" y="62.4081363399"/>
     <use style="fill:#b3cde3;stroke:#b3cde3;" x="423.331724514" xlink:href="#m33ae0bc305" y="70.3688220877"/>
     <use style="fill:#b3cde3;stroke:#b3cde3;" x="434.39249913" xlink:href="#m33ae0bc305" y="130.074001303"/>
     <use style="fill:#b3cde3;stroke:#b3cde3;" x="350.460799997" xlink:href="#m33ae0bc305" y="70.3688221496"/>
     <use style="fill:#b3cde3;stroke:#b3cde3;" x="393.780401016" xlink:href="#m33ae0bc305" y="127.70805465"/>
     <use style="fill:#b3cde3;stroke:#b3cde3;" x="383.706015624" xlink:href="#m33ae0bc305" y="80.389243126"/>
     <use style="fill:#b3cde3;stroke:#b3cde3;" x="393.780386644" xlink:href="#m33ae0bc305" y="89.8530302601"/>
     <use style="fill:#b3cde3;stroke:#b3cde3;" x="357.400889677" xlink:href="#m33ae0bc305" y="63.151715313"/>
     <use style="fill:#b3cde3;stroke:#b3cde3;" x="381.691200168" xlink:href="#m33ae0bc305" y="125.481293112"/>
     <use style="fill:#b3cde3;stroke:#b3cde3;" x="422.61382974" xlink:href="#m33ae0bc305" y="105.535804479"/>
     <use style="fill:#b3cde3;stroke:#b3cde3;" x="395.354499921" xlink:href="#m33ae0bc305" y="71.5170009542"/>
     <use style="fill:#b3cde3;stroke:#b3cde3;" x="444.152" xlink:href="#m33ae0bc305" y="117.74621008"/>
     <use style="fill:#b3cde3;stroke:#b3cde3;" x="427.270702334" xlink:href="#m33ae0bc305" y="109.832074233"/>
     <use style="fill:#b3cde3;stroke:#b3cde3;" x="385.067458231" xlink:href="#m33ae0bc305" y="86.6984450553"/>
     <use style="fill:#b3cde3;stroke:#b3cde3;" x="366.076007397" xlink:href="#m33ae0bc305" y="104.048665003"/>
     <use style="fill:#b3cde3;stroke:#b3cde3;" x="406.296969041" xlink:href="#m33ae0bc305" y="102.369613316"/>
     <use style="fill:#b3cde3;stroke:#b3cde3;" x="396.833211777" xlink:href="#m33ae0bc305" y="102.369613219"/>
     <use style="fill:#b3cde3;stroke:#b3cde3;" x="389.039540132" xlink:href="#m33ae0bc305" y="83.2283841403"/>
     <use style="fill:#b3cde3;stroke:#b3cde3;" x="399.537134122" xlink:href="#m33ae0bc305" y="81.0495394362"/>
     <use style="fill:#b3cde3;stroke:#b3cde3;" x="377.229714347" xlink:href="#m33ae0bc305" y="130.074001349"/>
     <use style="fill:#b3cde3;stroke:#b3cde3;" x="357.400908737" xlink:href="#m33ae0bc305" y="107.766558061"/>
     <use style="fill:#b3cde3;stroke:#b3cde3;" x="357.400888131" xlink:href="#m33ae0bc305" y="96.6128574769"/>
    </g>
   </g>
   <g id="line2d_1">
    <path clip-path="url(#p70e645a35b)" d="M 288 51.998 
L 290.554917 52.018903 
L 293.10915 52.081606 
L 298.212829 52.332333 
L 303.305572 52.749915 
L 308.381926 53.333902 
L 313.436454 54.08367 
L 318.463744 54.998417 
L 323.458413 56.077162 
L 328.415112 57.31875 
L 333.328533 58.721853 
L 338.193415 60.284966 
L 343.004549 62.006418 
L 347.756783 63.884363 
L 352.445028 65.916792 
L 357.064264 68.101528 
L 361.609543 70.436231 
L 366.076 72.918401 
L 370.458851 75.545381 
L 374.753403 78.314357 
L 378.955057 81.222365 
L 383.059315 84.266289 
L 387.06178 87.442872 
L 390.958168 90.74871 
L 394.744305 94.180265 
L 398.416138 97.733862 
L 401.969735 101.405695 
L 405.40129 105.191832 
L 408.707128 109.08822 
L 411.883711 113.090685 
L 414.927635 117.194943 
L 417.835643 121.396597 
L 420.604619 125.691149 
L 423.231599 130.074 
L 425.713769 134.540457 
L 428.048472 139.085736 
L 430.233208 143.704972 
L 432.265637 148.393217 
L 434.143582 153.145451 
L 435.865034 157.956585 
L 437.428147 162.821467 
L 438.83125 167.734888 
L 440.072838 172.691587 
L 441.151583 177.686256 
L 442.06633 182.713546 
L 442.816098 187.768074 
L 443.400085 192.844428 
L 443.817667 197.937171 
L 444.068394 203.04085 
L 444.152 208.15 
L 444.068394 213.25915 
L 443.817667 218.362829 
L 443.400085 223.455572 
L 442.816098 228.531926 
L 442.06633 233.586454 
L 441.151583 238.613744 
L 440.072838 243.608413 
L 438.83125 248.565112 
L 437.428147 253.478533 
L 435.865034 258.343415 
L 434.143582 263.154549 
L 432.265637 267.906783 
L 430.233208 272.595028 
L 428.048472 277.214264 
L 425.713769 281.759543 
L 423.231599 286.226 
L 420.604619 290.608851 
L 417.835643 294.903403 
L 414.927635 299.105057 
L 411.883711 303.209315 
L 408.707128 307.21178 
L 405.40129 311.108168 
L 401.969735 314.894305 
L 398.416138 318.566138 
L 394.744305 322.119735 
L 390.958168 325.55129 
L 387.06178 328.857128 
L 383.059315 332.033711 
L 378.955057 335.077635 
L 374.753403 337.985643 
L 370.458851 340.754619 
L 366.076 343.381599 
L 361.609543 345.863769 
L 357.064264 348.198472 
L 352.445028 350.383208 
L 347.756783 352.415637 
L 343.004549 354.293582 
L 338.193415 356.015034 
L 333.328533 357.578147 
L 328.415112 358.98125 
L 323.458413 360.222838 
L 318.463744 361.301583 
L 313.436454 362.21633 
L 308.381926 362.966098 
L 303.305572 363.550085 
L 298.212829 363.967667 
L 293.10915 364.218394 
L 288 364.302 
L 282.89085 364.218394 
L 277.787171 363.967667 
L 272.694428 363.550085 
L 267.618074 362.966098 
L 262.563546 362.21633 
L 257.536256 361.301583 
L 252.541587 360.222838 
L 247.584888 358.98125 
L 242.671467 357.578147 
L 237.806585 356.015034 
L 232.995451 354.293582 
L 228.243217 352.415637 
L 223.554972 350.383208 
L 218.935736 348.198472 
L 214.390457 345.863769 
L 209.924 343.381599 
L 205.541149 340.754619 
L 201.246597 337.985643 
L 197.044943 335.077635 
L 192.940685 332.033711 
L 188.93822 328.857128 
L 185.041832 325.55129 
L 181.255695 322.119735 
L 177.583862 318.566138 
L 174.030265 314.894305 
L 170.59871 311.108168 
L 167.292872 307.21178 
L 164.116289 303.209315 
L 161.072365 299.105057 
L 158.164357 294.903403 
L 155.395381 290.608851 
L 152.768401 286.226 
L 150.286231 281.759543 
L 147.951528 277.214264 
L 145.766792 272.595028 
L 143.734363 267.906783 
L 141.856418 263.154549 
L 140.134966 258.343415 
L 138.571853 253.478533 
L 137.16875 248.565112 
L 135.927162 243.608413 
L 134.848417 238.613744 
L 133.93367 233.586454 
L 133.183902 228.531926 
L 132.599915 223.455572 
L 132.182333 218.362829 
L 131.931606 213.25915 
L 131.848 208.15 
L 131.931606 203.04085 
L 132.182333 197.937171 
L 132.599915 192.844428 
L 133.183902 187.768074 
L 133.93367 182.713546 
L 134.848417 177.686256 
L 135.927162 172.691587 
L 137.16875 167.734888 
L 138.571853 162.821467 
L 140.134966 157.956585 
L 141.856418 153.145451 
L 143.734363 148.393217 
L 145.766792 143.704972 
L 147.951528 139.085736 
L 150.286231 134.540457 
L 152.768401 130.074 
L 155.395381 125.691149 
L 158.164357 121.396597 
L 161.072365 117.194943 
L 164.116289 113.090685 
L 167.292872 109.08822 
L 170.59871 105.191832 
L 174.030265 101.405695 
L 177.583862 97.733862 
L 181.255695 94.180265 
L 185.041832 90.74871 
L 188.93822 87.442872 
L 192.940685 84.266289 
L 197.044943 81.222365 
L 201.246597 78.314357 
L 205.541149 75.545381 
L 209.924 72.918401 
L 214.390457 70.436231 
L 218.935736 68.101528 
L 223.554972 65.916792 
L 228.243217 63.884363 
L 232.995451 62.006418 
L 237.806585 60.284966 
L 242.671467 58.721853 
L 247.584888 57.31875 
L 252.541587 56.077162 
L 257.536256 54.998417 
L 262.563546 54.08367 
L 267.618074 53.333902 
L 272.694428 52.749915 
L 277.787171 52.332333 
L 282.89085 52.081606 
L 288 51.998 
L 288 51.998 
" style="fill:none;stroke:#ffffff;stroke-linecap:square;stroke-width:2.0;"/>
   </g>
   <g id="line2d_2">
    <path clip-path="url(#p70e645a35b)" d="M 398.416138 97.733862 
" style="fill:none;stroke:#fbb4ae;stroke-linecap:square;"/>
    <defs>
     <path d="M 0 8 
C 2.121625 8 4.156639 7.15707 5.656854 5.656854 
C 7.15707 4.156639 8 2.121625 8 0 
C 8 -2.121625 7.15707 -4.156639 5.656854 -5.656854 
C 4.156639 -7.15707 2.121625 -8 0 -8 
C -2.121625 -8 -4.156639 -7.15707 -5.656854 -5.656854 
C -7.15707 -4.156639 -8 -2.121625 -8 0 
C -8 2.121625 -7.15707 4.156639 -5.656854 5.656854 
C -4.156639 7.15707 -2.121625 8 0 8 
z
" id="ma2642c7fa9" style="stroke:#000000;stroke-width:0.5;"/>
    </defs>
    <g clip-path="url(#p70e645a35b)">
     <use style="fill:#fbb4ae;stroke:#000000;stroke-width:0.5;" x="398.416138096" xlink:href="#ma2642c7fa9" y="97.7338619042"/>
    </g>
   </g>
  </g>
 </g>
 <defs>
  <clipPath id="p70e645a35b">
   <rect height="390.38" width="390.38" x="92.81" y="12.96"/>
  </clipPath>
 </defs>
</svg>
