<?xml version="1.0" encoding="utf-8" standalone="no"?>
<!DOCTYPE svg PUBLIC "-//W3C//DTD SVG 1.1//EN"
  "http://www.w3.org/Graphics/SVG/1.1/DTD/svg11.dtd">
<!-- Created with matplotlib (http://matplotlib.org/) -->
<svg height="432pt" version="1.1" viewBox="0 0 576 432" width="576pt" xmlns="http://www.w3.org/2000/svg" xmlns:xlink="http://www.w3.org/1999/xlink">
 <defs>
  <style type="text/css">
*{stroke-linecap:butt;stroke-linejoin:round;stroke-miterlimit:100000;}
  </style>
 </defs>
 <g id="figure_1">
  <g id="patch_1">
   <path d="M 0 432 
L 576 432 
L 576 0 
L 0 0 
L 0 432 
z
" style="fill:none;"/>
  </g>
  <g id="patch_2">
   <path d="M 12.96 419.04 
L 563.04 419.04 
L 563.04 12.96 
L 12.96 12.96 
L 12.96 419.04 
z
" style="fill:none;"/>
  </g>
  <g id="axes_1">
   <g id="patch_3">
    <path clip-path="url(#p1610a06f75)" d="M 293.487568 316.257708 
Q 293.487568 198.834362 293.487568 82.52905 
" style="fill:none;stroke:#ffffff;stroke-linecap:round;"/>
    <path clip-path="url(#p1610a06f75)" d="M 289.487568 90.52905 
L 293.487568 82.52905 
L 297.487568 90.52905 
L 289.487568 90.52905 
z
" style="fill:#ffffff;stroke:#ffffff;stroke-linecap:round;"/>
   </g>
   <g id="patch_4">
    <path clip-path="url(#p1610a06f75)" d="M 377.399444 167.461532 
Q 287.843113 246.942517 199.122989 325.68137 
" style="fill:none;stroke:#ffffff;stroke-linecap:round;"/>
    <path clip-path="url(#p1610a06f75)" d="M 207.761526 323.362817 
L 199.122989 325.68137 
L 202.451268 317.379409 
L 207.761526 323.362817 
z
" style="fill:#ffffff;stroke:#ffffff;stroke-linecap:round;"/>
   </g>
   <g id="line2d_1">
    <path clip-path="url(#p1610a06f75)" d="M 336.972953 246.465928 
L 247.254427 328.815908 
L 293.487568 149.780577 
L 336.972953 246.465928 
" style="fill:none;stroke:#ffffff;stroke-linecap:square;stroke-width:2.0;"/>
   </g>
   <g id="text_1">
    <!-- $\left|1\rangle\langle1\right|-\frac{1}{2}\left|2\rangle\langle2\right|-\frac{1}{2}\left|3\rangle\langle3\right|$ -->
    <defs>
     <path d="M 11.921875 -23.1875 
L 11.921875 73.1875 
Q 11.921875 73.96875 12.5 74.484375 
Q 13.09375 75 13.921875 75 
Q 14.65625 75 15.28125 74.484375 
Q 15.921875 73.96875 15.921875 73.1875 
L 15.921875 -23.1875 
Q 15.921875 -23.96875 15.28125 -24.484375 
Q 14.65625 -25 13.921875 -25 
Q 13.09375 -25 12.5 -24.484375 
Q 11.921875 -23.96875 11.921875 -23.1875 
" id="Cmsy10-6a"/>
     <path d="M 35.5 -114.796875 
L 10.015625 -56.78125 
Q 9.8125 -56.5 9.8125 -56 
Q 9.8125 -55.515625 10.015625 -55.328125 
L 35.5 2.78125 
Q 35.984375 4 37.3125 4 
Q 38.03125 4 38.671875 3.359375 
Q 39.3125 2.734375 39.3125 2 
Q 39.3125 1.515625 39.203125 1.3125 
L 14.015625 -56 
L 39.203125 -113.28125 
Q 39.3125 -113.484375 39.3125 -114.015625 
Q 39.3125 -114.75 38.671875 -115.375 
Q 38.03125 -116.015625 37.3125 -116.015625 
Q 36.03125 -116.015625 35.5 -114.796875 
" id="Cmex10-ad"/>
     <path d="M 7.8125 -114.015625 
Q 7.8125 -113.484375 8.015625 -113.28125 
L 33.109375 -56 
L 8.015625 1.3125 
Q 7.8125 1.515625 7.8125 2 
Q 7.8125 2.734375 8.390625 3.359375 
Q 8.984375 4 9.8125 4 
Q 10.984375 4 11.71875 2.78125 
L 37.203125 -55.328125 
Q 37.3125 -55.515625 37.3125 -56 
Q 37.3125 -56.5 37.203125 -56.78125 
L 11.71875 -114.796875 
Q 10.9375 -116.015625 9.8125 -116.015625 
Q 8.984375 -116.015625 8.390625 -115.375 
Q 7.8125 -114.75 7.8125 -114.015625 
" id="Cmex10-ae"/>
     <path d="M 10.203125 23 
Q 9.375 23 8.828125 23.625 
Q 8.296875 24.265625 8.296875 25 
Q 8.296875 25.734375 8.828125 26.359375 
Q 9.375 27 10.203125 27 
L 67.578125 27 
Q 68.359375 27 68.875 26.359375 
Q 69.390625 25.734375 69.390625 25 
Q 69.390625 24.265625 68.875 23.625 
Q 68.359375 23 67.578125 23 
z
" id="Cmsy10-a1"/>
     <path d="M 9.515625 7.71875 
Q 11.859375 4.296875 15.8125 2.640625 
Q 19.78125 0.984375 24.3125 0.984375 
Q 30.125 0.984375 32.5625 5.9375 
Q 35.015625 10.890625 35.015625 17.1875 
Q 35.015625 20.015625 34.5 22.84375 
Q 33.984375 25.6875 32.765625 28.125 
Q 31.546875 30.5625 29.421875 32.03125 
Q 27.296875 33.5 24.21875 33.5 
L 17.578125 33.5 
Q 16.703125 33.5 16.703125 34.421875 
L 16.703125 35.296875 
Q 16.703125 36.078125 17.578125 36.078125 
L 23.09375 36.53125 
Q 26.609375 36.53125 28.921875 39.15625 
Q 31.25 41.796875 32.328125 45.578125 
Q 33.40625 49.359375 33.40625 52.78125 
Q 33.40625 57.5625 31.15625 60.640625 
Q 28.90625 63.71875 24.3125 63.71875 
Q 20.515625 63.71875 17.046875 62.28125 
Q 13.578125 60.84375 11.53125 57.90625 
Q 11.71875 57.953125 11.859375 57.984375 
Q 12.015625 58.015625 12.203125 58.015625 
Q 14.453125 58.015625 15.96875 56.453125 
Q 17.484375 54.890625 17.484375 52.6875 
Q 17.484375 50.53125 15.96875 48.96875 
Q 14.453125 47.40625 12.203125 47.40625 
Q 10.015625 47.40625 8.453125 48.96875 
Q 6.890625 50.53125 6.890625 52.6875 
Q 6.890625 56.984375 9.46875 60.15625 
Q 12.0625 63.328125 16.140625 64.96875 
Q 20.21875 66.609375 24.3125 66.609375 
Q 27.34375 66.609375 30.703125 65.703125 
Q 34.078125 64.796875 36.8125 63.109375 
Q 39.546875 61.421875 41.28125 58.78125 
Q 43.015625 56.15625 43.015625 52.78125 
Q 43.015625 48.578125 41.140625 45.015625 
Q 39.265625 41.453125 35.984375 38.859375 
Q 32.71875 36.28125 28.8125 35.015625 
Q 33.15625 34.1875 37.0625 31.734375 
Q 40.96875 29.296875 43.328125 25.484375 
Q 45.703125 21.6875 45.703125 17.28125 
Q 45.703125 11.765625 42.671875 7.296875 
Q 39.65625 2.828125 34.71875 0.3125 
Q 29.78125 -2.203125 24.3125 -2.203125 
Q 19.625 -2.203125 14.90625 -0.40625 
Q 10.203125 1.375 7.203125 4.9375 
Q 4.203125 8.5 4.203125 13.484375 
Q 4.203125 15.96875 5.859375 17.625 
Q 7.515625 19.28125 10.015625 19.28125 
Q 11.625 19.28125 12.96875 18.53125 
Q 14.3125 17.78125 15.0625 16.40625 
Q 15.828125 15.046875 15.828125 13.484375 
Q 15.828125 11.03125 14.109375 9.375 
Q 12.40625 7.71875 10.015625 7.71875 
z
" id="Cmr10-33"/>
     <path d="M 4.984375 0 
L 4.984375 2.6875 
Q 4.984375 2.9375 5.171875 3.21875 
L 20.703125 20.40625 
Q 24.21875 24.21875 26.40625 26.796875 
Q 28.609375 29.390625 30.75 32.765625 
Q 32.90625 36.140625 34.15625 39.625 
Q 35.40625 43.109375 35.40625 47.015625 
Q 35.40625 51.125 33.890625 54.859375 
Q 32.375 58.59375 29.375 60.84375 
Q 26.375 63.09375 22.125 63.09375 
Q 17.78125 63.09375 14.3125 60.46875 
Q 10.84375 57.859375 9.421875 53.71875 
Q 9.8125 53.8125 10.5 53.8125 
Q 12.75 53.8125 14.328125 52.296875 
Q 15.921875 50.78125 15.921875 48.390625 
Q 15.921875 46.09375 14.328125 44.5 
Q 12.75 42.921875 10.5 42.921875 
Q 8.15625 42.921875 6.5625 44.546875 
Q 4.984375 46.1875 4.984375 48.390625 
Q 4.984375 52.15625 6.390625 55.4375 
Q 7.8125 58.734375 10.46875 61.296875 
Q 13.140625 63.875 16.484375 65.234375 
Q 19.828125 66.609375 23.578125 66.609375 
Q 29.296875 66.609375 34.21875 64.1875 
Q 39.15625 61.765625 42.03125 57.34375 
Q 44.921875 52.9375 44.921875 47.015625 
Q 44.921875 42.671875 43.015625 38.765625 
Q 41.109375 34.859375 38.125 31.65625 
Q 35.15625 28.46875 30.515625 24.40625 
Q 25.875 20.359375 24.421875 19 
L 13.09375 8.109375 
L 22.703125 8.109375 
Q 29.78125 8.109375 34.546875 8.21875 
Q 39.3125 8.34375 39.59375 8.59375 
Q 40.765625 9.859375 42 17.828125 
L 44.921875 17.828125 
L 42.09375 0 
z
" id="Cmr10-32"/>
     <path d="M 9.28125 0 
L 9.28125 3.515625 
Q 21.78125 3.515625 21.78125 6.6875 
L 21.78125 59.1875 
Q 16.609375 56.6875 8.6875 56.6875 
L 8.6875 60.203125 
Q 20.953125 60.203125 27.203125 66.609375 
L 28.609375 66.609375 
Q 28.953125 66.609375 29.265625 66.328125 
Q 29.59375 66.0625 29.59375 65.71875 
L 29.59375 6.6875 
Q 29.59375 3.515625 42.09375 3.515625 
L 42.09375 0 
z
" id="Cmr10-31"/>
    </defs>
    <g style="fill:#ffffff;" transform="translate(217.535075283 65.803499274)scale(0.18 -0.18)">
     <use transform="translate(0.0 7.984375)scale(1.20015625)" xlink:href="#Cmsy10-6a"/>
     <use transform="translate(33.22697448730469 0.6588541666666572)" xlink:href="#Cmr10-31"/>
     <use transform="translate(83.22697448730469 94.0)" xlink:href="#Cmex10-ae"/>
     <use transform="translate(130.4437713623047 94.0)" xlink:href="#Cmex10-ad"/>
     <use transform="translate(177.6605682373047 0.6588541666666572)" xlink:href="#Cmr10-31"/>
     <use transform="translate(227.6605682373047 7.984375)scale(1.20015625)" xlink:href="#Cmsy10-6a"/>
     <use transform="translate(278.4461364746094 0.6588541666666572)" xlink:href="#Cmsy10-a1"/>
     <use transform="translate(373.6902770996094 38.158854166666664)scale(0.7)" xlink:href="#Cmr10-31"/>
     <use transform="translate(373.6902770996094 -39.71770833333335)scale(0.7)" xlink:href="#Cmr10-32"/>
     <use transform="translate(421.1902770996094 7.984375)scale(1.20015625)" xlink:href="#Cmsy10-6a"/>
     <use transform="translate(454.41725158691406 0.6588541666666572)" xlink:href="#Cmr10-32"/>
     <use transform="translate(504.41725158691406 94.0)" xlink:href="#Cmex10-ae"/>
     <use transform="translate(551.6340484619141 94.0)" xlink:href="#Cmex10-ad"/>
     <use transform="translate(598.8508453369141 0.6588541666666572)" xlink:href="#Cmr10-32"/>
     <use transform="translate(648.8508453369141 7.984375)scale(1.20015625)" xlink:href="#Cmsy10-6a"/>
     <use transform="translate(699.6364135742188 0.6588541666666572)" xlink:href="#Cmsy10-a1"/>
     <use transform="translate(794.8805541992188 38.158854166666664)scale(0.7)" xlink:href="#Cmr10-31"/>
     <use transform="translate(794.8805541992188 -39.71770833333335)scale(0.7)" xlink:href="#Cmr10-32"/>
     <use transform="translate(842.3805541992188 7.984375)scale(1.20015625)" xlink:href="#Cmsy10-6a"/>
     <use transform="translate(875.6075286865234 0.6588541666666572)" xlink:href="#Cmr10-33"/>
     <use transform="translate(925.6075286865234 94.0)" xlink:href="#Cmex10-ae"/>
     <use transform="translate(972.8243255615234 94.0)" xlink:href="#Cmex10-ad"/>
     <use transform="translate(1020.0411224365234 0.6588541666666572)" xlink:href="#Cmr10-33"/>
     <use transform="translate(1070.0411224365234 7.984375)scale(1.20015625)" xlink:href="#Cmsy10-6a"/>
     <path d="M 373.690277 13.158854 
L 373.690277 19.408854 
L 408.690277 19.408854 
L 408.690277 13.158854 
L 373.690277 13.158854 
z
"/>
     <path d="M 794.880554 13.158854 
L 794.880554 19.408854 
L 829.880554 19.408854 
L 829.880554 13.158854 
L 794.880554 13.158854 
z
"/>
    </g>
   </g>
   <g id="text_2">
    <!-- $\left|2\rangle\langle2\right|-\left|3\rangle\langle3\right|$ -->
    <g style="fill:#ffffff;" transform="translate(146.123237617 362.559897468)scale(0.18 -0.18)">
     <use transform="translate(0.0 7.984375)scale(1.20015625)" xlink:href="#Cmsy10-6a"/>
     <use transform="translate(33.22697448730469 0.6588541666666572)" xlink:href="#Cmr10-32"/>
     <use transform="translate(83.22697448730469 94.0)" xlink:href="#Cmex10-ae"/>
     <use transform="translate(130.4437713623047 94.0)" xlink:href="#Cmex10-ad"/>
     <use transform="translate(177.6605682373047 0.6588541666666572)" xlink:href="#Cmr10-32"/>
     <use transform="translate(227.6605682373047 7.984375)scale(1.20015625)" xlink:href="#Cmsy10-6a"/>
     <use transform="translate(278.4461364746094 0.6588541666666572)" xlink:href="#Cmsy10-a1"/>
     <use transform="translate(373.6902770996094 7.984375)scale(1.20015625)" xlink:href="#Cmsy10-6a"/>
     <use transform="translate(406.91725158691406 0.6588541666666572)" xlink:href="#Cmr10-33"/>
     <use transform="translate(456.91725158691406 94.0)" xlink:href="#Cmex10-ae"/>
     <use transform="translate(504.13404846191406 94.0)" xlink:href="#Cmex10-ad"/>
     <use transform="translate(551.3508453369141 0.6588541666666572)" xlink:href="#Cmr10-33"/>
     <use transform="translate(601.3508453369141 7.984375)scale(1.20015625)" xlink:href="#Cmsy10-6a"/>
    </g>
   </g>
  </g>
 </g>
 <defs>
  <clipPath id="p1610a06f75">
   <rect height="406.08" width="406.08" x="84.96" y="12.96"/>
  </clipPath>
 </defs>
</svg>
