<?xml version="1.0" encoding="UTF-8" standalone="no"?>
<!-- Created with Inkscape (http://www.inkscape.org/) -->

<svg
   xmlns:dc="http://purl.org/dc/elements/1.1/"
   xmlns:cc="http://creativecommons.org/ns#"
   xmlns:rdf="http://www.w3.org/1999/02/22-rdf-syntax-ns#"
   xmlns:svg="http://www.w3.org/2000/svg"
   xmlns="http://www.w3.org/2000/svg"
   xmlns:sodipodi="http://sodipodi.sourceforge.net/DTD/sodipodi-0.dtd"
   xmlns:inkscape="http://www.inkscape.org/namespaces/inkscape"
   width="512"
   height="512"
   viewBox="0 0 512.00001 512.00001"
   id="svg2"
   version="1.1"
   inkscape:version="0.91 r13725"
   sodipodi:docname="simplex_scale_factor.svg">
  <sodipodi:namedview
     id="base"
     pagecolor="#787878"
     bordercolor="#666666"
     borderopacity="1.0"
     inkscape:pageopacity="1"
     inkscape:pageshadow="2"
     inkscape:zoom="1.4"
     inkscape:cx="334.11017"
     inkscape:cy="208.55136"
     inkscape:document-units="px"
     inkscape:current-layer="layer1"
     showgrid="true"
     units="px"
     inkscape:window-width="1855"
     inkscape:window-height="1056"
     inkscape:window-x="65"
     inkscape:window-y="24"
     inkscape:window-maximized="1">
    <inkscape:grid
       dotted="true"
       empspacing="4"
       id="grid4136"
       type="xygrid" />
  </sodipodi:namedview>
  <defs
     id="defs4">
    <marker
       inkscape:isstock="true"
       style="overflow:visible;"
       id="Arrow2Mend"
       refX="0.0"
       refY="0.0"
       orient="auto"
       inkscape:stockid="Arrow2Mend">
      <path
         transform="scale(0.6) rotate(180) translate(0,0)"
         d="M 8.7185878,4.0337352 L -2.2072895,0.016013256 L 8.7185884,-4.0017078 C 6.9730900,-1.6296469 6.9831476,1.6157441 8.7185878,4.0337352 z "
         style="fill-rule:evenodd;stroke-width:0.62500000;stroke-linejoin:round;"
         id="path7678" />
    </marker>
    <marker
       inkscape:isstock="true"
       style="overflow:visible;"
       id="marker7393"
       refX="0.0"
       refY="0.0"
       orient="auto"
       inkscape:stockid="Arrow1Mend">
      <path
         transform="scale(0.4) rotate(180) translate(10,0)"
         style="fill-rule:evenodd;stroke:#b3cde3;stroke-width:1pt;stroke-opacity:1;fill:#b3cde3;fill-opacity:1"
         d="M 0.0,0.0 L 5.0,-5.0 L -12.5,0.0 L 5.0,5.0 L 0.0,0.0 z "
         id="path4864" />
    </marker>
    <marker
       inkscape:isstock="true"
       style="overflow:visible"
       id="marker7220"
       refX="0.0"
       refY="0.0"
       orient="auto"
       inkscape:stockid="DotM">
      <path
         transform="scale(0.4) translate(7.4, 1)"
         style="fill-rule:evenodd;stroke:#ffffff;stroke-width:1pt;stroke-opacity:1;fill:#ffffff;fill-opacity:1"
         d="M -2.5,-1.0 C -2.5,1.7600000 -4.7400000,4.0 -7.5,4.0 C -10.260000,4.0 -12.5,1.7600000 -12.5,-1.0 C -12.5,-3.7600000 -10.260000,-6.0 -7.5,-6.0 C -4.7400000,-6.0 -2.5,-3.7600000 -2.5,-1.0 z "
         id="path4919" />
    </marker>
    <marker
       inkscape:isstock="true"
       style="overflow:visible"
       id="marker5186"
       refX="0"
       refY="0"
       orient="auto"
       inkscape:stockid="Arrow2Mend">
      <path
         inkscape:connector-curvature="0"
         transform="scale(-0.6,-0.6)"
         d="M 8.7185878,4.0337352 -2.2072895,0.01601326 8.7185884,-4.0017078 c -1.7454984,2.3720609 -1.7354408,5.6174519 -6e-7,8.035443 z"
         style="fill:#ffffff;fill-opacity:1;fill-rule:evenodd;stroke:#ffffff;stroke-width:0.625;stroke-linejoin:round;stroke-opacity:1"
         id="path4882" />
    </marker>
    <marker
       inkscape:isstock="true"
       style="overflow:visible"
       id="marker5111"
       refX="0"
       refY="0"
       orient="auto"
       inkscape:stockid="Arrow2Lend">
      <path
         inkscape:connector-curvature="0"
         transform="matrix(-1.1,0,0,-1.1,-1.1,0)"
         d="M 8.7185878,4.0337352 -2.2072895,0.01601326 8.7185884,-4.0017078 c -1.7454984,2.3720609 -1.7354408,5.6174519 -6e-7,8.035443 z"
         style="fill:#000000;fill-opacity:1;fill-rule:evenodd;stroke:#000000;stroke-width:0.625;stroke-linejoin:round;stroke-opacity:1"
         id="path4876" />
    </marker>
    <marker
       inkscape:isstock="true"
       style="overflow:visible"
       id="Arrow1Mend"
       refX="0"
       refY="0"
       orient="auto"
       inkscape:stockid="Arrow1Mend">
      <path
         inkscape:connector-curvature="0"
         transform="matrix(-0.4,0,0,-0.4,-4,0)"
         style="fill:#ffffff;fill-opacity:1;fill-rule:evenodd;stroke:#ffffff;stroke-width:1pt;stroke-opacity:1"
         d="M 0,0 5,-5 -12.5,0 5,5 0,0 Z"
         id="path4153" />
    </marker>
    <marker
       inkscape:stockid="Arrow2Mend"
       orient="auto"
       refY="0"
       refX="0"
       id="marker4849"
       style="overflow:visible"
       inkscape:isstock="true">
      <path
         inkscape:connector-curvature="0"
         id="path4851"
         style="fill:#ffffff;fill-opacity:1;fill-rule:evenodd;stroke:#ffffff;stroke-width:0.625;stroke-linejoin:round;stroke-opacity:1"
         d="M 8.7185878,4.0337352 -2.2072895,0.01601326 8.7185884,-4.0017078 c -1.7454984,2.3720609 -1.7354408,5.6174519 -6e-7,8.035443 z"
         transform="scale(-0.6,-0.6)" />
    </marker>
    <marker
       inkscape:isstock="true"
       style="overflow:visible"
       id="Arrow1Mstart"
       refX="0"
       refY="0"
       orient="auto"
       inkscape:stockid="Arrow1Mstart">
      <path
         inkscape:connector-curvature="0"
         transform="matrix(0.4,0,0,0.4,4,0)"
         style="fill:#b3cde3;fill-opacity:1;fill-rule:evenodd;stroke:#b3cde3;stroke-width:1pt;stroke-opacity:1"
         d="M 0,0 5,-5 -12.5,0 5,5 0,0 Z"
         id="path4150" />
    </marker>
    <marker
       inkscape:isstock="true"
       style="overflow:visible"
       id="DotM"
       refX="0"
       refY="0"
       orient="auto"
       inkscape:stockid="DotM">
      <path
         inkscape:connector-curvature="0"
         transform="matrix(0.4,0,0,0.4,2.96,0.4)"
         style="fill:#b3cde3;fill-opacity:1;fill-rule:evenodd;stroke:#b3cde3;stroke-width:1pt;stroke-opacity:1"
         d="m -2.5,-1 c 0,2.76 -2.24,5 -5,5 -2.76,0 -5,-2.24 -5,-5 0,-2.76 2.24,-5 5,-5 2.76,0 5,2.24 5,5 z"
         id="path4208" />
    </marker>
    <marker
       inkscape:isstock="true"
       style="overflow:visible"
       id="marker4504"
       refX="0"
       refY="0"
       orient="auto"
       inkscape:stockid="Arrow2Lend">
      <path
         inkscape:connector-curvature="0"
         transform="matrix(-1.1,0,0,-1.1,-1.1,0)"
         d="M 8.7185878,4.0337352 -2.2072895,0.01601326 8.7185884,-4.0017078 c -1.7454984,2.3720609 -1.7354408,5.6174519 -6e-7,8.035443 z"
         style="fill:#000000;fill-opacity:1;fill-rule:evenodd;stroke:#000000;stroke-width:0.625;stroke-linejoin:round;stroke-opacity:1"
         id="path4506" />
    </marker>
    <marker
       inkscape:isstock="true"
       style="overflow:visible"
       id="Arrow2Lend"
       refX="0"
       refY="0"
       orient="auto"
       inkscape:stockid="Arrow2Lend">
      <path
         inkscape:connector-curvature="0"
         transform="matrix(-1.1,0,0,-1.1,-1.1,0)"
         d="M 8.7185878,4.0337352 -2.2072895,0.01601326 8.7185884,-4.0017078 c -1.7454984,2.3720609 -1.7354408,5.6174519 -6e-7,8.035443 z"
         style="fill:#000000;fill-opacity:1;fill-rule:evenodd;stroke:#000000;stroke-width:0.625;stroke-linejoin:round;stroke-opacity:1"
         id="path4165" />
    </marker>
    <marker
       inkscape:isstock="true"
       style="overflow:visible"
       id="Arrow1Lend"
       refX="0"
       refY="0"
       orient="auto"
       inkscape:stockid="Arrow1Lend">
      <path
         inkscape:connector-curvature="0"
         transform="matrix(-0.8,0,0,-0.8,-10,0)"
         style="fill:#000000;fill-opacity:1;fill-rule:evenodd;stroke:#000000;stroke-width:1pt;stroke-opacity:1"
         d="M 0,0 5,-5 -12.5,0 5,5 0,0 Z"
         id="path4147" />
    </marker>
    <marker
       inkscape:isstock="true"
       style="overflow:visible"
       id="Arrow1Lstart"
       refX="0"
       refY="0"
       orient="auto"
       inkscape:stockid="Arrow1Lstart">
      <path
         inkscape:connector-curvature="0"
         transform="matrix(0.8,0,0,0.8,10,0)"
         style="fill:#000000;fill-opacity:1;fill-rule:evenodd;stroke:#000000;stroke-width:1pt;stroke-opacity:1"
         d="M 0,0 5,-5 -12.5,0 5,5 0,0 Z"
         id="path4144" />
    </marker>
  </defs>
  <metadata
     id="metadata7">
    <rdf:RDF>
      <cc:Work
         rdf:about="">
        <dc:format>image/svg+xml</dc:format>
        <dc:type
           rdf:resource="http://purl.org/dc/dcmitype/StillImage" />
        <dc:title></dc:title>
      </cc:Work>
    </rdf:RDF>
  </metadata>
  <g
     transform="translate(0,-540.36216)"
     id="layer1"
     inkscape:groupmode="layer"
     inkscape:label="Layer 1">
    <text
       sodipodi:linespacing="125%"
       id="text7367"
       y="756.36218"
       x="264"
       style="font-style:normal;font-weight:normal;font-size:60px;line-height:125%;font-family:sans-serif;letter-spacing:0px;word-spacing:0px;fill:#000000;fill-opacity:1;stroke:none;stroke-width:1px;stroke-linecap:butt;stroke-linejoin:miter;stroke-opacity:1"
       xml:space="preserve"><tspan
         y="756.36218"
         x="264"
         id="tspan7369"
         sodipodi:role="line" /></text>
    <path
       inkscape:connector-curvature="0"
       id="path9318"
       d="m 64.285714,868.36216 375.999996,0"
       style="fill:none;fill-rule:evenodd;stroke:#ffffff;stroke-width:4;stroke-linecap:butt;stroke-linejoin:miter;stroke-miterlimit:4;stroke-dasharray:none;stroke-opacity:1;marker-start:url(#marker7220);marker-end:url(#marker7220)" />
    <path
       id="path9519"
       title="x**2"
       d=" M 64.0 660.36218 C 64.4895833333 661.445513333 64.9791666667 662.524614896 65.46875 663.599484687 C 65.9583333333 664.674354479 66.4479166667 665.7449925 66.9375 666.81139875 C 67.4270833333 667.877805 67.9166666667 668.939979479 68.40625 669.997922187 C 68.8958333333 671.055864896 69.3854166667 672.109575833 69.875 673.159055 C 70.3645833333 674.208534167 70.8541666667 675.253781562 71.34375 676.294797187 C 71.8333333333 677.335812812 72.3229166667 678.372596667 72.8125 679.40514875 C 73.3020833333 680.437700833 73.7916666667 681.466021146 74.28125 682.490109687 C 74.7708333333 683.514198229 75.2604166667 684.534055 75.75 685.54968 C 76.2395833333 686.565305 76.7291666667 687.576698229 77.21875 688.583859687 C 77.7083333333 689.591021146 78.1979166667 690.593950833 78.6875 691.59264875 C 79.1770833333 692.591346667 79.6666666667 693.585812812 80.15625 694.576047187 C 80.6458333333 695.566281562 81.1354166667 696.552284167 81.625 697.534055 C 82.1145833333 698.515825833 82.6041666667 699.493364896 83.09375 700.466672187 C 83.5833333333 701.439979479 84.0729166667 702.409055 84.5625 703.37389875 C 85.0520833333 704.3387425 85.5416666667 705.299354479 86.03125 706.255734687 C 86.5208333333 707.212114896 87.0104166667 708.164263333 87.5 709.11218 C 87.9895833333 710.060096667 88.4791666667 711.003781562 88.96875 711.943234687 C 89.4583333333 712.882687812 89.9479166667 713.817909167 90.4375 714.74889875 C 90.9270833333 715.679888333 91.4166666667 716.606646146 91.90625 717.529172187 C 92.3958333333 718.451698229 92.8854166667 719.3699925 93.375 720.284055 C 93.8645833333 721.1981175 94.3541666667 722.107948229 94.84375 723.013547187 C 95.3333333333 723.919146146 95.8229166667 724.820513333 96.3125 725.71764875 C 96.8020833333 726.614784167 97.2916666667 727.507687812 97.78125 728.396359687 C 98.2708333333 729.285031562 98.7604166667 730.169471667 99.25 731.04968 C 99.7395833333 731.929888333 100.229166667 732.805864896 100.71875 733.677609687 C 101.208333333 734.549354479 101.697916667 735.4168675 102.1875 736.28014875 C 102.677083333 737.14343 103.166666667 738.002479479 103.65625 738.857297187 C 104.145833333 739.712114896 104.635416667 740.562700833 105.125 741.409055 C 105.614583333 742.255409167 106.104166667 743.097531562 106.59375 743.935422187 C 107.083333333 744.773312812 107.572916667 745.606971667 108.0625 746.43639875 C 108.552083333 747.265825833 109.041666667 748.091021146 109.53125 748.911984687 C 110.020833333 749.732948229 110.510416667 750.54968 111.0 751.36218 C 111.489583333 752.17468 111.979166667 752.982948229 112.46875 753.786984687 C 112.958333333 754.591021146 113.447916667 755.390825833 113.9375 756.18639875 C 114.427083333 756.981971667 114.916666667 757.773312812 115.40625 758.560422187 C 115.895833333 759.347531562 116.385416667 760.130409167 116.875 760.909055 C 117.364583333 761.687700833 117.854166667 762.462114896 118.34375 763.232297187 C 118.833333333 764.002479479 119.322916667 764.76843 119.8125 765.53014875 C 120.302083333 766.2918675 120.791666667 767.049354479 121.28125 767.802609687 C 121.770833333 768.555864896 122.260416667 769.304888333 122.75 770.04968 C 123.239583333 770.794471667 123.729166667 771.535031562 124.21875 772.271359687 C 124.708333333 773.007687812 125.197916667 773.739784167 125.6875 774.46764875 C 126.177083333 775.195513333 126.666666667 775.919146146 127.15625 776.638547187 C 127.645833333 777.357948229 128.135416667 778.0731175 128.625 778.784055 C 129.114583333 779.4949925 129.604166667 780.201698229 130.09375 780.904172187 C 130.583333333 781.606646146 131.072916667 782.304888333 131.5625 782.99889875 C 132.052083333 783.692909167 132.541666667 784.382687812 133.03125 785.068234687 C 133.520833333 785.753781562 134.010416667 786.435096667 134.5 787.11218 C 134.989583333 787.789263333 135.479166667 788.462114896 135.96875 789.130734687 C 136.458333333 789.799354479 136.947916667 790.4637425 137.4375 791.12389875 C 137.927083333 791.784055 138.416666667 792.439979479 138.90625 793.091672187 C 139.395833333 793.743364896 139.885416667 794.390825833 140.375 795.034055 C 140.864583333 795.677284167 141.354166667 796.316281562 141.84375 796.951047187 C 142.333333333 797.585812812 142.822916667 798.216346667 143.3125 798.84264875 C 143.802083333 799.468950833 144.291666667 800.091021146 144.78125 800.708859687 C 145.270833333 801.326698229 145.760416667 801.940305 146.25 802.54968 C 146.739583333 803.159055 147.229166667 803.764198229 147.71875 804.365109687 C 148.208333333 804.966021146 148.697916667 805.562700833 149.1875 806.15514875 C 149.677083333 806.747596667 150.166666667 807.335812812 150.65625 807.919797187 C 151.145833333 808.503781562 151.635416667 809.083534167 152.125 809.659055 C 152.614583333 810.234575833 153.104166667 810.805864896 153.59375 811.372922187 C 154.083333333 811.939979479 154.572916667 812.502805 155.0625 813.06139875 C 155.552083333 813.6199925 156.041666667 814.174354479 156.53125 814.724484687 C 157.020833333 815.274614896 157.510416667 815.820513333 158.0 816.36218 C 158.489583333 816.903846667 158.979166667 817.441281562 159.46875 817.974484687 C 159.958333333 818.507687812 160.447916667 819.036659167 160.9375 819.56139875 C 161.427083333 820.086138333 161.916666667 820.606646146 162.40625 821.122922187 C 162.895833333 821.639198229 163.385416667 822.1512425 163.875 822.659055 C 164.364583333 823.1668675 164.854166667 823.670448229 165.34375 824.169797187 C 165.833333333 824.669146146 166.322916667 825.164263333 166.8125 825.65514875 C 167.302083333 826.146034167 167.791666667 826.632687812 168.28125 827.115109687 C 168.770833333 827.597531562 169.260416667 828.075721667 169.75 828.54968 C 170.239583333 829.023638333 170.729166667 829.493364896 171.21875 829.958859687 C 171.708333333 830.424354479 172.197916667 830.8856175 172.6875 831.34264875 C 173.177083333 831.79968 173.666666667 832.252479479 174.15625 832.701047187 C 174.645833333 833.149614896 175.135416667 833.593950833 175.625 834.034055 C 176.114583333 834.474159167 176.604166667 834.910031562 177.09375 835.341672187 C 177.583333333 835.773312812 178.072916667 836.200721667 178.5625 836.62389875 C 179.052083333 837.047075833 179.541666667 837.466021146 180.03125 837.880734687 C 180.520833333 838.295448229 181.010416667 838.70593 181.5 839.11218 C 181.989583333 839.51843 182.479166667 839.920448229 182.96875 840.318234687 C 183.458333333 840.716021146 183.947916667 841.109575833 184.4375 841.49889875 C 184.927083333 841.888221667 185.416666667 842.273312812 185.90625 842.654172187 C 186.395833333 843.035031562 186.885416667 843.411659167 187.375 843.784055 C 187.864583333 844.156450833 188.354166667 844.524614896 188.84375 844.888547187 C 189.333333333 845.252479479 189.822916667 845.61218 190.3125 845.96764875 C 190.802083333 846.3231175 191.291666667 846.674354479 191.78125 847.021359687 C 192.270833333 847.368364896 192.760416667 847.711138333 193.25 848.04968 C 193.739583333 848.388221667 194.229166667 848.722531562 194.71875 849.052609687 C 195.208333333 849.382687812 195.697916667 849.708534167 196.1875 850.03014875 C 196.677083333 850.351763333 197.166666667 850.669146146 197.65625 850.982297187 C 198.145833333 851.295448229 198.635416667 851.6043675 199.125 851.909055 C 199.614583333 852.2137425 200.104166667 852.514198229 200.59375 852.810422187 C 201.083333333 853.106646146 201.572916667 853.398638333 202.0625 853.68639875 C 202.552083333 853.974159167 203.041666667 854.257687812 203.53125 854.536984687 C 204.020833333 854.816281562 204.510416667 855.091346667 205.0 855.36218 C 205.489583333 855.633013333 205.979166667 855.899614896 206.46875 856.161984687 C 206.958333333 856.424354479 207.447916667 856.6824925 207.9375 856.93639875 C 208.427083333 857.190305 208.916666667 857.439979479 209.40625 857.685422187 C 209.895833333 857.930864896 210.385416667 858.172075833 210.875 858.409055 C 211.364583333 858.646034167 211.854166667 858.878781562 212.34375 859.107297187 C 212.833333333 859.335812812 213.322916667 859.560096667 213.8125 859.78014875 C 214.302083333 860.000200833 214.791666667 860.216021146 215.28125 860.427609687 C 215.770833333 860.639198229 216.260416667 860.846555 216.75 861.04968 C 217.239583333 861.252805 217.729166667 861.451698229 218.21875 861.646359687 C 218.708333333 861.841021146 219.197916667 862.031450833 219.6875 862.21764875 C 220.177083333 862.403846667 220.666666667 862.585812812 221.15625 862.763547187 C 221.645833333 862.941281562 222.135416667 863.114784167 222.625 863.284055 C 223.114583333 863.453325833 223.604166667 863.618364896 224.09375 863.779172187 C 224.583333333 863.939979479 225.072916667 864.096555 225.5625 864.24889875 C 226.052083333 864.4012425 226.541666667 864.549354479 227.03125 864.693234687 C 227.520833333 864.837114896 228.010416667 864.976763333 228.5 865.11218 C 228.989583333 865.247596667 229.479166667 865.378781562 229.96875 865.505734687 C 230.458333333 865.632687812 230.947916667 865.755409167 231.4375 865.87389875 C 231.927083333 865.992388333 232.416666667 866.106646146 232.90625 866.216672187 C 233.395833333 866.326698229 233.885416667 866.4324925 234.375 866.534055 C 234.864583333 866.6356175 235.354166667 866.732948229 235.84375 866.826047187 C 236.333333333 866.919146146 236.822916667 867.008013333 237.3125 867.09264875 C 237.802083333 867.177284167 238.291666667 867.257687812 238.78125 867.333859687 C 239.270833333 867.410031562 239.760416667 867.481971667 240.25 867.54968 C 240.739583333 867.617388333 241.229166667 867.680864896 241.71875 867.740109687 C 242.208333333 867.799354479 242.697916667 867.8543675 243.1875 867.90514875 C 243.677083333 867.95593 244.166666667 868.002479479 244.65625 868.044797187 C 245.145833333 868.087114896 245.635416667 868.125200833 246.125 868.159055 C 246.614583333 868.192909167 247.104166667 868.222531562 247.59375 868.247922187 C 248.083333333 868.273312812 248.572916667 868.294471667 249.0625 868.31139875 C 249.552083333 868.328325833 250.041666667 868.341021146 250.53125 868.349484687 C 251.020833333 868.357948229 251.510416667 868.36218 252.0 868.36218 C 252.489583333 868.36218 252.979166667 868.357948229 253.46875 868.349484687 C 253.958333333 868.341021146 254.447916667 868.328325833 254.9375 868.31139875 C 255.427083333 868.294471667 255.916666667 868.273312812 256.40625 868.247922187 C 256.895833333 868.222531562 257.385416667 868.192909167 257.875 868.159055 C 258.364583333 868.125200833 258.854166667 868.087114896 259.34375 868.044797187 C 259.833333333 868.002479479 260.322916667 867.95593 260.8125 867.90514875 C 261.302083333 867.8543675 261.791666667 867.799354479 262.28125 867.740109687 C 262.770833333 867.680864896 263.260416667 867.617388333 263.75 867.54968 C 264.239583333 867.481971667 264.729166667 867.410031562 265.21875 867.333859687 C 265.708333333 867.257687812 266.197916667 867.177284167 266.6875 867.09264875 C 267.177083333 867.008013333 267.666666667 866.919146146 268.15625 866.826047187 C 268.645833333 866.732948229 269.135416667 866.6356175 269.625 866.534055 C 270.114583333 866.4324925 270.604166667 866.326698229 271.09375 866.216672187 C 271.583333333 866.106646146 272.072916667 865.992388333 272.5625 865.87389875 C 273.052083333 865.755409167 273.541666667 865.632687812 274.03125 865.505734687 C 274.520833333 865.378781562 275.010416667 865.247596667 275.5 865.11218 C 275.989583333 864.976763333 276.479166667 864.837114896 276.96875 864.693234687 C 277.458333333 864.549354479 277.947916667 864.4012425 278.4375 864.24889875 C 278.927083333 864.096555 279.416666667 863.939979479 279.90625 863.779172187 C 280.395833333 863.618364896 280.885416667 863.453325833 281.375 863.284055 C 281.864583333 863.114784167 282.354166667 862.941281562 282.84375 862.763547187 C 283.333333333 862.585812812 283.822916667 862.403846667 284.3125 862.21764875 C 284.802083333 862.031450833 285.291666667 861.841021146 285.78125 861.646359687 C 286.270833333 861.451698229 286.760416667 861.252805 287.25 861.04968 C 287.739583333 860.846555 288.229166667 860.639198229 288.71875 860.427609687 C 289.208333333 860.216021146 289.697916667 860.000200833 290.1875 859.78014875 C 290.677083333 859.560096667 291.166666667 859.335812812 291.65625 859.107297187 C 292.145833333 858.878781562 292.635416667 858.646034167 293.125 858.409055 C 293.614583333 858.172075833 294.104166667 857.930864896 294.59375 857.685422187 C 295.083333333 857.439979479 295.572916667 857.190305 296.0625 856.93639875 C 296.552083333 856.6824925 297.041666667 856.424354479 297.53125 856.161984687 C 298.020833333 855.899614896 298.510416667 855.633013333 299.0 855.36218 C 299.489583333 855.091346667 299.979166667 854.816281562 300.46875 854.536984687 C 300.958333333 854.257687812 301.447916667 853.974159167 301.9375 853.68639875 C 302.427083333 853.398638333 302.916666667 853.106646146 303.40625 852.810422187 C 303.895833333 852.514198229 304.385416667 852.2137425 304.875 851.909055 C 305.364583333 851.6043675 305.854166667 851.295448229 306.34375 850.982297187 C 306.833333333 850.669146146 307.322916667 850.351763333 307.8125 850.03014875 C 308.302083333 849.708534167 308.791666667 849.382687812 309.28125 849.052609687 C 309.770833333 848.722531562 310.260416667 848.388221667 310.75 848.04968 C 311.239583333 847.711138333 311.729166667 847.368364896 312.21875 847.021359687 C 312.708333333 846.674354479 313.197916667 846.3231175 313.6875 845.96764875 C 314.177083333 845.61218 314.666666667 845.252479479 315.15625 844.888547187 C 315.645833333 844.524614896 316.135416667 844.156450833 316.625 843.784055 C 317.114583333 843.411659167 317.604166667 843.035031562 318.09375 842.654172187 C 318.583333333 842.273312812 319.072916667 841.888221667 319.5625 841.49889875 C 320.052083333 841.109575833 320.541666667 840.716021146 321.03125 840.318234687 C 321.520833333 839.920448229 322.010416667 839.51843 322.5 839.11218 C 322.989583333 838.70593 323.479166667 838.295448229 323.96875 837.880734687 C 324.458333333 837.466021146 324.947916667 837.047075833 325.4375 836.62389875 C 325.927083333 836.200721667 326.416666667 835.773312812 326.90625 835.341672187 C 327.395833333 834.910031562 327.885416667 834.474159167 328.375 834.034055 C 328.864583333 833.593950833 329.354166667 833.149614896 329.84375 832.701047187 C 330.333333333 832.252479479 330.822916667 831.79968 331.3125 831.34264875 C 331.802083333 830.8856175 332.291666667 830.424354479 332.78125 829.958859687 C 333.270833333 829.493364896 333.760416667 829.023638333 334.25 828.54968 C 334.739583333 828.075721667 335.229166667 827.597531562 335.71875 827.115109687 C 336.208333333 826.632687812 336.697916667 826.146034167 337.1875 825.65514875 C 337.677083333 825.164263333 338.166666667 824.669146146 338.65625 824.169797187 C 339.145833333 823.670448229 339.635416667 823.1668675 340.125 822.659055 C 340.614583333 822.1512425 341.104166667 821.639198229 341.59375 821.122922187 C 342.083333333 820.606646146 342.572916667 820.086138333 343.0625 819.56139875 C 343.552083333 819.036659167 344.041666667 818.507687812 344.53125 817.974484687 C 345.020833333 817.441281562 345.510416667 816.903846667 346.0 816.36218 C 346.489583333 815.820513333 346.979166667 815.274614896 347.46875 814.724484687 C 347.958333333 814.174354479 348.447916667 813.6199925 348.9375 813.06139875 C 349.427083333 812.502805 349.916666667 811.939979479 350.40625 811.372922187 C 350.895833333 810.805864896 351.385416667 810.234575833 351.875 809.659055 C 352.364583333 809.083534167 352.854166667 808.503781562 353.34375 807.919797187 C 353.833333333 807.335812812 354.322916667 806.747596667 354.8125 806.15514875 C 355.302083333 805.562700833 355.791666667 804.966021146 356.28125 804.365109687 C 356.770833333 803.764198229 357.260416667 803.159055 357.75 802.54968 C 358.239583333 801.940305 358.729166667 801.326698229 359.21875 800.708859687 C 359.708333333 800.091021146 360.197916667 799.468950833 360.6875 798.84264875 C 361.177083333 798.216346667 361.666666667 797.585812812 362.15625 796.951047187 C 362.645833333 796.316281562 363.135416667 795.677284167 363.625 795.034055 C 364.114583333 794.390825833 364.604166667 793.743364896 365.09375 793.091672187 C 365.583333333 792.439979479 366.072916667 791.784055 366.5625 791.12389875 C 367.052083333 790.4637425 367.541666667 789.799354479 368.03125 789.130734687 C 368.520833333 788.462114896 369.010416667 787.789263333 369.5 787.11218 C 369.989583333 786.435096667 370.479166667 785.753781562 370.96875 785.068234687 C 371.458333333 784.382687812 371.947916667 783.692909167 372.4375 782.99889875 C 372.927083333 782.304888333 373.416666667 781.606646146 373.90625 780.904172187 C 374.395833333 780.201698229 374.885416667 779.4949925 375.375 778.784055 C 375.864583333 778.0731175 376.354166667 777.357948229 376.84375 776.638547187 C 377.333333333 775.919146146 377.822916667 775.195513333 378.3125 774.46764875 C 378.802083333 773.739784167 379.291666667 773.007687812 379.78125 772.271359687 C 380.270833333 771.535031562 380.760416667 770.794471667 381.25 770.04968 C 381.739583333 769.304888333 382.229166667 768.555864896 382.71875 767.802609687 C 383.208333333 767.049354479 383.697916667 766.2918675 384.1875 765.53014875 C 384.677083333 764.76843 385.166666667 764.002479479 385.65625 763.232297187 C 386.145833333 762.462114896 386.635416667 761.687700833 387.125 760.909055 C 387.614583333 760.130409167 388.104166667 759.347531562 388.59375 758.560422187 C 389.083333333 757.773312812 389.572916667 756.981971667 390.0625 756.18639875 C 390.552083333 755.390825833 391.041666667 754.591021146 391.53125 753.786984687 C 392.020833333 752.982948229 392.510416667 752.17468 393.0 751.36218 C 393.489583333 750.54968 393.979166667 749.732948229 394.46875 748.911984687 C 394.958333333 748.091021146 395.447916667 747.265825833 395.9375 746.43639875 C 396.427083333 745.606971667 396.916666667 744.773312812 397.40625 743.935422187 C 397.895833333 743.097531562 398.385416667 742.255409167 398.875 741.409055 C 399.364583333 740.562700833 399.854166667 739.712114896 400.34375 738.857297187 C 400.833333333 738.002479479 401.322916667 737.14343 401.8125 736.28014875 C 402.302083333 735.4168675 402.791666667 734.549354479 403.28125 733.677609687 C 403.770833333 732.805864896 404.260416667 731.929888333 404.75 731.04968 C 405.239583333 730.169471667 405.729166667 729.285031562 406.21875 728.396359687 C 406.708333333 727.507687812 407.197916667 726.614784167 407.6875 725.71764875 C 408.177083333 724.820513333 408.666666667 723.919146146 409.15625 723.013547187 C 409.645833333 722.107948229 410.135416667 721.1981175 410.625 720.284055 C 411.114583333 719.3699925 411.604166667 718.451698229 412.09375 717.529172187 C 412.583333333 716.606646146 413.072916667 715.679888333 413.5625 714.74889875 C 414.052083333 713.817909167 414.541666667 712.882687812 415.03125 711.943234687 C 415.520833333 711.003781562 416.010416667 710.060096667 416.5 709.11218 C 416.989583333 708.164263333 417.479166667 707.212114896 417.96875 706.255734687 C 418.458333333 705.299354479 418.947916667 704.3387425 419.4375 703.37389875 C 419.927083333 702.409055 420.416666667 701.439979479 420.90625 700.466672187 C 421.395833333 699.493364896 421.885416667 698.515825833 422.375 697.534055 C 422.864583333 696.552284167 423.354166667 695.566281562 423.84375 694.576047187 C 424.333333333 693.585812812 424.822916667 692.591346667 425.3125 691.59264875 C 425.802083333 690.593950833 426.291666667 689.591021146 426.78125 688.583859687 C 427.270833333 687.576698229 427.760416667 686.565305 428.25 685.54968 C 428.739583333 684.534055 429.229166667 683.514198229 429.71875 682.490109687 C 430.208333333 681.466021146 430.697916667 680.437700833 431.1875 679.40514875 C 431.677083333 678.372596667 432.166666667 677.335812812 432.65625 676.294797187 C 433.145833333 675.253781562 433.635416667 674.208534167 434.125 673.159055 C 434.614583333 672.109575833 435.104166667 671.055864896 435.59375 669.997922187 C 436.083333333 668.939979479 436.572916667 667.877805 437.0625 666.81139875 C 437.552083333 665.7449925 438.041666667 664.674354479 438.53125 663.599484687 C 439.020833333 662.524614896 439.510416667 661.445513333 440.0 660.36218"
       style="color:#000000;clip-rule:nonzero;display:inline;overflow:visible;visibility:visible;opacity:1;isolation:auto;mix-blend-mode:normal;color-interpolation:sRGB;color-interpolation-filters:linearRGB;solid-color:#000000;solid-opacity:1;fill:none;fill-opacity:1;fill-rule:nonzero;stroke:#fbb4ae;stroke-width:4;stroke-linecap:butt;stroke-linejoin:miter;stroke-miterlimit:4;stroke-dasharray:none;stroke-dashoffset:0;stroke-opacity:1;color-rendering:auto;image-rendering:auto;shape-rendering:auto;text-rendering:auto;enable-background:accumulate" />
    <text
       xml:space="preserve"
       style="font-style:normal;font-weight:normal;font-size:60px;line-height:125%;font-family:sans-serif;letter-spacing:0px;word-spacing:0px;fill:#ffffff;fill-opacity:1;stroke:none;stroke-width:1px;stroke-linecap:butt;stroke-linejoin:miter;stroke-opacity:1"
       x="364.57144"
       y="932.2193"
       id="text9615"
       sodipodi:linespacing="125%"><tspan
         sodipodi:role="line"
         id="tspan9617"
         x="364.57144"
         y="932.2193"
         style="-inkscape-font-specification:'Latin Modern Roman, ';font-family:'Latin Modern Roman';font-weight:normal;font-style:normal;font-stretch:normal;font-variant:normal">Δ</tspan></text>
  </g>
</svg>
