<?xml version="1.0" encoding="utf-8" standalone="no"?>
<!DOCTYPE svg PUBLIC "-//W3C//DTD SVG 1.1//EN"
  "http://www.w3.org/Graphics/SVG/1.1/DTD/svg11.dtd">
<!-- Created with matplotlib (http://matplotlib.org/) -->
<svg height="432pt" version="1.1" viewBox="0 0 576 432" width="576pt" xmlns="http://www.w3.org/2000/svg" xmlns:xlink="http://www.w3.org/1999/xlink">
 <defs>
  <style type="text/css">
*{stroke-linecap:butt;stroke-linejoin:round;stroke-miterlimit:100000;}
  </style>
 </defs>
 <g id="figure_1">
  <g id="patch_1">
   <path d="M 0 432 
L 576 432 
L 576 0 
L 0 0 
L 0 432 
z
" style="fill:none;"/>
  </g>
  <g id="patch_2">
   <path d="M 84.96 419.04 
L 491.04 419.04 
L 491.04 12.96 
L 84.96 12.96 
L 84.96 419.04 
z
" style="fill:none;"/>
  </g>
  <g id="axes_1">
   <g id="patch_3">
    <path clip-path="url(#pc34b5f6469)" d="M 293.487568 316.257708 
Q 293.487568 198.834362 293.487568 82.52905 
" style="fill:none;stroke:#ffffff;stroke-linecap:round;"/>
    <path clip-path="url(#pc34b5f6469)" d="M 289.487568 90.52905 
L 293.487568 82.52905 
L 297.487568 90.52905 
L 289.487568 90.52905 
z
" style="fill:#ffffff;stroke:#ffffff;stroke-linecap:round;"/>
   </g>
   <g id="patch_4">
    <path clip-path="url(#pc34b5f6469)" d="M 377.399444 167.461532 
Q 287.843113 246.942517 199.122989 325.68137 
" style="fill:none;stroke:#ffffff;stroke-linecap:round;"/>
    <path clip-path="url(#pc34b5f6469)" d="M 207.761526 323.362817 
L 199.122989 325.68137 
L 202.451268 317.379409 
L 207.761526 323.362817 
z
" style="fill:#ffffff;stroke:#ffffff;stroke-linecap:round;"/>
   </g>
   <g id="patch_5">
    <path clip-path="url(#pc34b5f6469)" d="M 180.657871 208.554403 
Q 296.652953 242.869503 411.57593 276.86744 
" style="fill:none;stroke:#ffffff;stroke-linecap:round;"/>
    <path clip-path="url(#pc34b5f6469)" d="M 405.039294 270.762328 
L 411.57593 276.86744 
L 402.769859 278.433682 
L 405.039294 270.762328 
z
" style="fill:#ffffff;stroke:#ffffff;stroke-linecap:round;"/>
   </g>
   <g id="line2d_1">
    <path clip-path="url(#pc34b5f6469)" d="M 336.972953 246.465928 
L 247.254427 328.815908 
L 293.487568 149.780577 
L 336.972953 246.465928 
" style="fill:none;stroke:#ffffff;stroke-linecap:square;stroke-width:2.0;"/>
   </g>
   <g id="line2d_2">
    <path clip-path="url(#pc34b5f6469)" d="M 293.487568 149.780577 
L 289.514624 148.804591 
L 285.502567 148.049045 
L 281.461187 147.515163 
L 277.400293 147.203631 
L 273.329685 147.114594 
L 269.259137 147.247666 
L 265.198367 147.601934 
L 261.15702 148.175967 
L 257.144643 148.967825 
L 253.170666 149.975068 
L 249.163156 151.222414 
L 245.215061 152.687531 
L 241.335904 154.366288 
L 237.534997 156.254064 
L 233.82142 158.345762 
L 230.204005 160.63583 
L 226.691318 163.118273 
L 223.223494 165.843017 
L 219.881819 168.754127 
L 216.674436 171.843927 
L 213.609131 175.104341 
L 210.69332 178.526912 
L 207.934039 182.102829 
L 205.287714 185.898749 
L 202.817761 189.834643 
L 200.530338 193.900148 
L 198.43114 198.08461 
L 196.525392 202.377108 
L 194.817833 206.766477 
L 193.312714 211.241339 
L 192.013785 215.790119 
L 190.924295 220.401079 
L 190.04698 225.062336 
L 189.373217 229.854344 
L 188.924133 234.673355 
L 188.70096 239.506488 
L 188.704359 244.340816 
L 188.92786 249.070854 
L 189.368941 253.777409 
L 190.026621 258.448332 
L 190.899392 263.071542 
L 191.985213 267.635052 
L 193.281521 272.126993 
L 194.785227 276.535645 
L 196.492725 280.849459 
L 198.399892 285.057089 
L 200.459036 289.068405 
L 202.700816 292.956726 
L 205.119943 296.712064 
L 207.710682 300.324717 
L 210.466856 303.785287 
L 213.381862 307.084707 
L 216.3859 310.153392 
L 219.52875 313.05109 
L 222.80306 315.770319 
L 226.201133 318.303989 
L 229.714935 320.645418 
L 233.336114 322.788353 
L 237.056011 324.726991 
L 240.787099 326.422836 
L 244.595682 327.912948 
L 248.472874 329.193224 
L 252.409579 330.260035 
L 256.396511 331.110246 
L 260.424211 331.741221 
L 264.483071 332.150843 
L 268.563356 332.33752 
L 272.655224 332.300193 
L 276.748752 332.038352 
L 280.833961 331.552033 
L 284.900838 330.841834 
L 288.939365 329.90891 
L 292.939541 328.754981 
L 296.891413 327.382335 
L 300.785101 325.79382 
L 304.610822 323.992849 
L 308.358923 321.983394 
L 312.019906 319.769978 
L 315.584453 317.357669 
L 319.043457 314.752072 
L 322.388048 311.959316 
L 325.675363 308.922227 
L 328.825633 305.704618 
L 331.830354 302.314605 
L 334.681392 298.760808 
L 337.37101 295.052319 
L 339.891894 291.198688 
L 342.237176 287.209887 
L 344.400457 283.096291 
L 346.375828 278.868641 
L 348.157894 274.538015 
L 349.741784 270.115798 
L 351.149233 265.521015 
L 352.341844 260.855639 
L 353.316246 256.13252 
L 354.069702 251.364689 
L 354.600112 246.565305 
L 354.906031 241.747624 
L 354.986662 236.924947 
L 354.841865 232.110585 
L 354.472156 227.317812 
L 353.8787 222.559825 
L 353.063311 217.849699 
L 352.05127 213.292661 
L 350.831331 208.805964 
L 349.406956 204.401357 
L 347.782164 200.090334 
L 345.961515 195.884098 
L 343.950094 191.793533 
L 341.75349 187.829173 
L 339.377783 184.001169 
L 336.829515 180.319267 
L 334.115672 176.792776 
L 331.24366 173.430553 
L 328.284411 170.304286 
L 325.188543 167.351096 
L 321.964048 164.577916 
L 318.619209 161.991186 
L 315.162577 159.596845 
L 311.602942 157.400315 
L 307.949312 155.406494 
L 304.210882 153.619749 
L 300.397013 152.043906 
L 296.517204 150.682252 
L 293.487568 149.780577 
L 293.487568 149.780577 
" style="fill:none;stroke:#ffffff;stroke-linecap:square;"/>
   </g>
   <g id="line2d_3">
    <path clip-path="url(#pc34b5f6469)" d="M 288.775283 139.052486 
L 288.476843 135.368169 
L 287.609625 132.40318 
L 286.229623 130.360957 
L 284.427865 129.384847 
L 282.325013 129.547245 
L 280.063723 130.843093 
L 277.799109 133.188605 
L 275.687911 136.42574 
L 273.877169 140.332464 
L 272.493345 144.638256 
L 271.632867 149.043702 
L 271.354984 153.242526 
L 271.677559 156.944111 
L 272.576156 159.894511 
L 273.98637 161.894197 
L 275.809081 162.81122 
L 277.918011 162.589016 
L 280.168877 161.248667 
L 282.409357 158.885884 
L 284.489177 155.663336 
L 286.269704 151.799149 
L 287.632575 147.552446 
L 288.486974 143.206809 
L 288.775283 139.052486 
" style="fill:none;stroke:#fbb4ae;stroke-linecap:square;"/>
   </g>
   <g id="line2d_4">
    <path clip-path="url(#pc34b5f6469)" d="M 297.694483 139.005423 
L 297.330566 134.343704 
L 296.250033 130.588685 
L 294.521579 127.998453 
L 292.258168 126.756198 
L 289.610631 126.955993 
L 286.75832 128.593878 
L 283.897202 131.565522 
L 281.226098 135.671331 
L 278.932108 140.629212 
L 277.17648 146.0944 
L 276.082273 151.684813 
L 275.725043 157.009734 
L 276.127421 161.699091 
L 277.258055 165.430624 
L 279.034827 167.952542 
L 281.331827 169.099959 
L 283.989226 168.804211 
L 286.825028 167.094967 
L 289.647689 164.095677 
L 292.268691 160.013349 
L 294.514358 155.123782 
L 296.236395 149.75344 
L 297.32074 144.258985 
L 297.694483 139.005423 
" style="fill:none;stroke:#fbb4ae;stroke-linecap:square;"/>
   </g>
   <g id="line2d_5">
    <path clip-path="url(#pc34b5f6469)" d="M 305.011157 140.279107 
L 304.63664 135.330947 
L 303.504149 131.345083 
L 301.685315 128.595611 
L 299.298663 127.277425 
L 296.502983 127.490979 
L 293.487568 129.232616 
L 290.459674 132.391877 
L 287.62995 136.756757 
L 285.196931 142.027213 
L 283.331957 147.836279 
L 282.16598 153.777191 
L 281.779583 159.434085 
L 282.197187 164.413347 
L 283.385924 168.372628 
L 285.259089 171.044958 
L 287.683603 172.256113 
L 290.490532 171.934315 
L 293.487568 170.112221 
L 296.472377 166.92185 
L 299.245855 162.583545 
L 301.624537 157.390232 
L 303.451646 151.688205 
L 304.606375 145.855545 
L 305.011157 140.279107 
" style="fill:none;stroke:#fbb4ae;stroke-linecap:square;"/>
   </g>
   <g id="line2d_6">
    <path clip-path="url(#pc34b5f6469)" d="M 311.039764 142.63702 
L 310.695284 137.966712 
L 309.637466 134.2073 
L 307.933479 131.617197 
L 305.694625 130.379635 
L 303.070048 130.588425 
L 300.237508 132.23905 
L 297.391591 135.226343 
L 294.730048 139.349645 
L 292.439307 144.325645 
L 290.680387 149.808289 
L 289.576588 155.414246 
L 289.204146 160.751683 
L 289.586764 165.449645 
L 290.694469 169.185284 
L 292.446727 171.70656 
L 294.719302 172.848682 
L 297.354015 172.54341 
L 300.170391 170.821111 
L 302.978174 167.806157 
L 305.589828 163.706621 
L 307.832296 158.799449 
L 309.557492 153.412252 
L 310.651154 147.902784 
L 311.039764 142.63702 
" style="fill:none;stroke:#fbb4ae;stroke-linecap:square;"/>
   </g>
   <g id="line2d_7">
    <path clip-path="url(#pc34b5f6469)" d="M 315.493868 146.338381 
L 315.226215 142.640481 
L 314.394948 139.668592 
L 313.053641 137.626656 
L 311.29069 136.658065 
L 309.224097 136.834776 
L 306.994011 138.150821 
L 304.753378 140.521079 
L 302.657262 143.785827 
L 300.851648 147.721113 
L 299.462643 152.054404 
L 298.587045 156.484336 
L 298.285167 160.702897 
L 298.576553 164.418086 
L 299.438929 167.375027 
L 300.810389 169.373784 
L 302.594457 170.282536 
L 304.667473 170.045358 
L 306.887565 168.684419 
L 309.104468 166.296869 
L 311.169473 163.047066 
L 312.944932 159.154959 
L 314.31282 154.881509 
L 315.181996 150.512048 
L 315.493868 146.338381 
" style="fill:none;stroke:#fbb4ae;stroke-linecap:square;"/>
   </g>
   <g id="text_1">
    <!-- $\left|1\rangle\langle1\right|-\frac{1}{2}\left|2\rangle\langle2\right|-\frac{1}{2}\left|3\rangle\langle3\right|$ -->
    <defs>
     <path d="M 11.921875 -23.1875 
L 11.921875 73.1875 
Q 11.921875 73.96875 12.5 74.484375 
Q 13.09375 75 13.921875 75 
Q 14.65625 75 15.28125 74.484375 
Q 15.921875 73.96875 15.921875 73.1875 
L 15.921875 -23.1875 
Q 15.921875 -23.96875 15.28125 -24.484375 
Q 14.65625 -25 13.921875 -25 
Q 13.09375 -25 12.5 -24.484375 
Q 11.921875 -23.96875 11.921875 -23.1875 
" id="Cmsy10-6a"/>
     <path d="M 35.5 -114.796875 
L 10.015625 -56.78125 
Q 9.8125 -56.5 9.8125 -56 
Q 9.8125 -55.515625 10.015625 -55.328125 
L 35.5 2.78125 
Q 35.984375 4 37.3125 4 
Q 38.03125 4 38.671875 3.359375 
Q 39.3125 2.734375 39.3125 2 
Q 39.3125 1.515625 39.203125 1.3125 
L 14.015625 -56 
L 39.203125 -113.28125 
Q 39.3125 -113.484375 39.3125 -114.015625 
Q 39.3125 -114.75 38.671875 -115.375 
Q 38.03125 -116.015625 37.3125 -116.015625 
Q 36.03125 -116.015625 35.5 -114.796875 
" id="Cmex10-ad"/>
     <path d="M 7.8125 -114.015625 
Q 7.8125 -113.484375 8.015625 -113.28125 
L 33.109375 -56 
L 8.015625 1.3125 
Q 7.8125 1.515625 7.8125 2 
Q 7.8125 2.734375 8.390625 3.359375 
Q 8.984375 4 9.8125 4 
Q 10.984375 4 11.71875 2.78125 
L 37.203125 -55.328125 
Q 37.3125 -55.515625 37.3125 -56 
Q 37.3125 -56.5 37.203125 -56.78125 
L 11.71875 -114.796875 
Q 10.9375 -116.015625 9.8125 -116.015625 
Q 8.984375 -116.015625 8.390625 -115.375 
Q 7.8125 -114.75 7.8125 -114.015625 
" id="Cmex10-ae"/>
     <path d="M 10.203125 23 
Q 9.375 23 8.828125 23.625 
Q 8.296875 24.265625 8.296875 25 
Q 8.296875 25.734375 8.828125 26.359375 
Q 9.375 27 10.203125 27 
L 67.578125 27 
Q 68.359375 27 68.875 26.359375 
Q 69.390625 25.734375 69.390625 25 
Q 69.390625 24.265625 68.875 23.625 
Q 68.359375 23 67.578125 23 
z
" id="Cmsy10-a1"/>
     <path d="M 9.515625 7.71875 
Q 11.859375 4.296875 15.8125 2.640625 
Q 19.78125 0.984375 24.3125 0.984375 
Q 30.125 0.984375 32.5625 5.9375 
Q 35.015625 10.890625 35.015625 17.1875 
Q 35.015625 20.015625 34.5 22.84375 
Q 33.984375 25.6875 32.765625 28.125 
Q 31.546875 30.5625 29.421875 32.03125 
Q 27.296875 33.5 24.21875 33.5 
L 17.578125 33.5 
Q 16.703125 33.5 16.703125 34.421875 
L 16.703125 35.296875 
Q 16.703125 36.078125 17.578125 36.078125 
L 23.09375 36.53125 
Q 26.609375 36.53125 28.921875 39.15625 
Q 31.25 41.796875 32.328125 45.578125 
Q 33.40625 49.359375 33.40625 52.78125 
Q 33.40625 57.5625 31.15625 60.640625 
Q 28.90625 63.71875 24.3125 63.71875 
Q 20.515625 63.71875 17.046875 62.28125 
Q 13.578125 60.84375 11.53125 57.90625 
Q 11.71875 57.953125 11.859375 57.984375 
Q 12.015625 58.015625 12.203125 58.015625 
Q 14.453125 58.015625 15.96875 56.453125 
Q 17.484375 54.890625 17.484375 52.6875 
Q 17.484375 50.53125 15.96875 48.96875 
Q 14.453125 47.40625 12.203125 47.40625 
Q 10.015625 47.40625 8.453125 48.96875 
Q 6.890625 50.53125 6.890625 52.6875 
Q 6.890625 56.984375 9.46875 60.15625 
Q 12.0625 63.328125 16.140625 64.96875 
Q 20.21875 66.609375 24.3125 66.609375 
Q 27.34375 66.609375 30.703125 65.703125 
Q 34.078125 64.796875 36.8125 63.109375 
Q 39.546875 61.421875 41.28125 58.78125 
Q 43.015625 56.15625 43.015625 52.78125 
Q 43.015625 48.578125 41.140625 45.015625 
Q 39.265625 41.453125 35.984375 38.859375 
Q 32.71875 36.28125 28.8125 35.015625 
Q 33.15625 34.1875 37.0625 31.734375 
Q 40.96875 29.296875 43.328125 25.484375 
Q 45.703125 21.6875 45.703125 17.28125 
Q 45.703125 11.765625 42.671875 7.296875 
Q 39.65625 2.828125 34.71875 0.3125 
Q 29.78125 -2.203125 24.3125 -2.203125 
Q 19.625 -2.203125 14.90625 -0.40625 
Q 10.203125 1.375 7.203125 4.9375 
Q 4.203125 8.5 4.203125 13.484375 
Q 4.203125 15.96875 5.859375 17.625 
Q 7.515625 19.28125 10.015625 19.28125 
Q 11.625 19.28125 12.96875 18.53125 
Q 14.3125 17.78125 15.0625 16.40625 
Q 15.828125 15.046875 15.828125 13.484375 
Q 15.828125 11.03125 14.109375 9.375 
Q 12.40625 7.71875 10.015625 7.71875 
z
" id="Cmr10-33"/>
     <path d="M 4.984375 0 
L 4.984375 2.6875 
Q 4.984375 2.9375 5.171875 3.21875 
L 20.703125 20.40625 
Q 24.21875 24.21875 26.40625 26.796875 
Q 28.609375 29.390625 30.75 32.765625 
Q 32.90625 36.140625 34.15625 39.625 
Q 35.40625 43.109375 35.40625 47.015625 
Q 35.40625 51.125 33.890625 54.859375 
Q 32.375 58.59375 29.375 60.84375 
Q 26.375 63.09375 22.125 63.09375 
Q 17.78125 63.09375 14.3125 60.46875 
Q 10.84375 57.859375 9.421875 53.71875 
Q 9.8125 53.8125 10.5 53.8125 
Q 12.75 53.8125 14.328125 52.296875 
Q 15.921875 50.78125 15.921875 48.390625 
Q 15.921875 46.09375 14.328125 44.5 
Q 12.75 42.921875 10.5 42.921875 
Q 8.15625 42.921875 6.5625 44.546875 
Q 4.984375 46.1875 4.984375 48.390625 
Q 4.984375 52.15625 6.390625 55.4375 
Q 7.8125 58.734375 10.46875 61.296875 
Q 13.140625 63.875 16.484375 65.234375 
Q 19.828125 66.609375 23.578125 66.609375 
Q 29.296875 66.609375 34.21875 64.1875 
Q 39.15625 61.765625 42.03125 57.34375 
Q 44.921875 52.9375 44.921875 47.015625 
Q 44.921875 42.671875 43.015625 38.765625 
Q 41.109375 34.859375 38.125 31.65625 
Q 35.15625 28.46875 30.515625 24.40625 
Q 25.875 20.359375 24.421875 19 
L 13.09375 8.109375 
L 22.703125 8.109375 
Q 29.78125 8.109375 34.546875 8.21875 
Q 39.3125 8.34375 39.59375 8.59375 
Q 40.765625 9.859375 42 17.828125 
L 44.921875 17.828125 
L 42.09375 0 
z
" id="Cmr10-32"/>
     <path d="M 9.28125 0 
L 9.28125 3.515625 
Q 21.78125 3.515625 21.78125 6.6875 
L 21.78125 59.1875 
Q 16.609375 56.6875 8.6875 56.6875 
L 8.6875 60.203125 
Q 20.953125 60.203125 27.203125 66.609375 
L 28.609375 66.609375 
Q 28.953125 66.609375 29.265625 66.328125 
Q 29.59375 66.0625 29.59375 65.71875 
L 29.59375 6.6875 
Q 29.59375 3.515625 42.09375 3.515625 
L 42.09375 0 
z
" id="Cmr10-31"/>
    </defs>
    <g style="fill:#ffffff;" transform="translate(217.535075283 65.803499274)scale(0.18 -0.18)">
     <use transform="translate(0.0 7.984375)scale(1.20015625)" xlink:href="#Cmsy10-6a"/>
     <use transform="translate(33.22697448730469 0.6588541666666572)" xlink:href="#Cmr10-31"/>
     <use transform="translate(83.22697448730469 94.0)" xlink:href="#Cmex10-ae"/>
     <use transform="translate(130.4437713623047 94.0)" xlink:href="#Cmex10-ad"/>
     <use transform="translate(177.6605682373047 0.6588541666666572)" xlink:href="#Cmr10-31"/>
     <use transform="translate(227.6605682373047 7.984375)scale(1.20015625)" xlink:href="#Cmsy10-6a"/>
     <use transform="translate(278.4461364746094 0.6588541666666572)" xlink:href="#Cmsy10-a1"/>
     <use transform="translate(373.6902770996094 38.158854166666664)scale(0.7)" xlink:href="#Cmr10-31"/>
     <use transform="translate(373.6902770996094 -39.71770833333335)scale(0.7)" xlink:href="#Cmr10-32"/>
     <use transform="translate(421.1902770996094 7.984375)scale(1.20015625)" xlink:href="#Cmsy10-6a"/>
     <use transform="translate(454.41725158691406 0.6588541666666572)" xlink:href="#Cmr10-32"/>
     <use transform="translate(504.41725158691406 94.0)" xlink:href="#Cmex10-ae"/>
     <use transform="translate(551.6340484619141 94.0)" xlink:href="#Cmex10-ad"/>
     <use transform="translate(598.8508453369141 0.6588541666666572)" xlink:href="#Cmr10-32"/>
     <use transform="translate(648.8508453369141 7.984375)scale(1.20015625)" xlink:href="#Cmsy10-6a"/>
     <use transform="translate(699.6364135742188 0.6588541666666572)" xlink:href="#Cmsy10-a1"/>
     <use transform="translate(794.8805541992188 38.158854166666664)scale(0.7)" xlink:href="#Cmr10-31"/>
     <use transform="translate(794.8805541992188 -39.71770833333335)scale(0.7)" xlink:href="#Cmr10-32"/>
     <use transform="translate(842.3805541992188 7.984375)scale(1.20015625)" xlink:href="#Cmsy10-6a"/>
     <use transform="translate(875.6075286865234 0.6588541666666572)" xlink:href="#Cmr10-33"/>
     <use transform="translate(925.6075286865234 94.0)" xlink:href="#Cmex10-ae"/>
     <use transform="translate(972.8243255615234 94.0)" xlink:href="#Cmex10-ad"/>
     <use transform="translate(1020.0411224365234 0.6588541666666572)" xlink:href="#Cmr10-33"/>
     <use transform="translate(1070.0411224365234 7.984375)scale(1.20015625)" xlink:href="#Cmsy10-6a"/>
     <path d="M 373.690277 13.158854 
L 373.690277 19.408854 
L 408.690277 19.408854 
L 408.690277 13.158854 
L 373.690277 13.158854 
z
"/>
     <path d="M 794.880554 13.158854 
L 794.880554 19.408854 
L 829.880554 19.408854 
L 829.880554 13.158854 
L 794.880554 13.158854 
z
"/>
    </g>
   </g>
   <g id="text_2">
    <!-- $\left|2\rangle\langle2\right|-\left|3\rangle\langle3\right|$ -->
    <g style="fill:#ffffff;" transform="translate(146.123237617 362.559897468)scale(0.18 -0.18)">
     <use transform="translate(0.0 7.984375)scale(1.20015625)" xlink:href="#Cmsy10-6a"/>
     <use transform="translate(33.22697448730469 0.6588541666666572)" xlink:href="#Cmr10-32"/>
     <use transform="translate(83.22697448730469 94.0)" xlink:href="#Cmex10-ae"/>
     <use transform="translate(130.4437713623047 94.0)" xlink:href="#Cmex10-ad"/>
     <use transform="translate(177.6605682373047 0.6588541666666572)" xlink:href="#Cmr10-32"/>
     <use transform="translate(227.6605682373047 7.984375)scale(1.20015625)" xlink:href="#Cmsy10-6a"/>
     <use transform="translate(278.4461364746094 0.6588541666666572)" xlink:href="#Cmsy10-a1"/>
     <use transform="translate(373.6902770996094 7.984375)scale(1.20015625)" xlink:href="#Cmsy10-6a"/>
     <use transform="translate(406.91725158691406 0.6588541666666572)" xlink:href="#Cmr10-33"/>
     <use transform="translate(456.91725158691406 94.0)" xlink:href="#Cmex10-ae"/>
     <use transform="translate(504.13404846191406 94.0)" xlink:href="#Cmex10-ad"/>
     <use transform="translate(551.3508453369141 0.6588541666666572)" xlink:href="#Cmr10-33"/>
     <use transform="translate(601.3508453369141 7.984375)scale(1.20015625)" xlink:href="#Cmsy10-6a"/>
    </g>
   </g>
   <g id="text_3">
    <!-- $\left|1\rangle\langle2\right|+\left|2\rangle\langle1\right|$ -->
    <defs>
     <path d="M 7.515625 23 
Q 6.6875 23 6.140625 23.625 
Q 5.609375 24.265625 5.609375 25 
Q 5.609375 25.734375 6.140625 26.359375 
Q 6.6875 27 7.515625 27 
L 36.921875 27 
L 36.921875 56.5 
Q 36.921875 57.28125 37.5 57.78125 
Q 38.09375 58.296875 38.921875 58.296875 
Q 39.65625 58.296875 40.28125 57.78125 
Q 40.921875 57.28125 40.921875 56.5 
L 40.921875 27 
L 70.3125 27 
Q 71.046875 27 71.578125 26.359375 
Q 72.125 25.734375 72.125 25 
Q 72.125 24.265625 71.578125 23.625 
Q 71.046875 23 70.3125 23 
L 40.921875 23 
L 40.921875 -6.5 
Q 40.921875 -7.28125 40.28125 -7.78125 
Q 39.65625 -8.296875 38.921875 -8.296875 
Q 38.09375 -8.296875 37.5 -7.78125 
Q 36.921875 -7.28125 36.921875 -6.5 
L 36.921875 23 
z
" id="Cmr10-2b"/>
    </defs>
    <g style="fill:#ffffff;" transform="translate(388.811525957 309.523057742)scale(0.18 -0.18)">
     <use transform="translate(0.0 7.984375)scale(1.20015625)" xlink:href="#Cmsy10-6a"/>
     <use transform="translate(33.22697448730469 0.6588541666666572)" xlink:href="#Cmr10-31"/>
     <use transform="translate(83.22697448730469 94.0)" xlink:href="#Cmex10-ae"/>
     <use transform="translate(130.4437713623047 94.0)" xlink:href="#Cmex10-ad"/>
     <use transform="translate(177.6605682373047 0.6588541666666572)" xlink:href="#Cmr10-32"/>
     <use transform="translate(227.6605682373047 7.984375)scale(1.20015625)" xlink:href="#Cmsy10-6a"/>
     <use transform="translate(278.4461364746094 0.6588541666666572)" xlink:href="#Cmr10-2b"/>
     <use transform="translate(373.6902770996094 7.984375)scale(1.20015625)" xlink:href="#Cmsy10-6a"/>
     <use transform="translate(406.91725158691406 0.6588541666666572)" xlink:href="#Cmr10-32"/>
     <use transform="translate(456.91725158691406 94.0)" xlink:href="#Cmex10-ae"/>
     <use transform="translate(504.13404846191406 94.0)" xlink:href="#Cmex10-ad"/>
     <use transform="translate(551.3508453369141 0.6588541666666572)" xlink:href="#Cmr10-31"/>
     <use transform="translate(601.3508453369141 7.984375)scale(1.20015625)" xlink:href="#Cmsy10-6a"/>
    </g>
   </g>
  </g>
 </g>
 <defs>
  <clipPath id="pc34b5f6469">
   <rect height="406.08" width="406.08" x="84.96" y="12.96"/>
  </clipPath>
 </defs>
</svg>
