<?xml version="1.0" encoding="utf-8" standalone="no"?>
<!DOCTYPE svg PUBLIC "-//W3C//DTD SVG 1.1//EN"
  "http://www.w3.org/Graphics/SVG/1.1/DTD/svg11.dtd">
<!-- Created with matplotlib (http://matplotlib.org/) -->
<svg height="432pt" version="1.1" viewBox="0 0 576 432" width="576pt" xmlns="http://www.w3.org/2000/svg" xmlns:xlink="http://www.w3.org/1999/xlink">
 <defs>
  <style type="text/css">
*{stroke-linecap:butt;stroke-linejoin:round;stroke-miterlimit:100000;}
  </style>
 </defs>
 <g id="figure_1">
  <g id="patch_1">
   <path d="M 0 432 
L 576 432 
L 576 0 
L 0 0 
L 0 432 
z
" style="fill:none;"/>
  </g>
  <g id="axes_1">
   <g id="line2d_1">
    <path clip-path="url(#p0d33c3d4bb)" d="M 257.989 216 
L 257.875587 211.380803 
L 257.53562 206.772738 
L 256.969919 202.186909 
L 256.179847 197.634368 
L 255.167308 193.126086 
L 253.934742 188.672927 
L 252.48512 184.285622 
L 250.821934 179.974746 
L 248.949194 175.750685 
L 246.871411 171.623621 
L 244.593594 167.603497 
L 242.121231 163.700003 
L 239.460281 159.922546 
L 236.617155 156.280227 
L 233.598707 152.781826 
L 230.412209 149.435773 
L 227.065341 146.25013 
L 223.566168 143.232576 
L 219.923123 140.390382 
L 216.144985 137.730398 
L 212.240859 135.259033 
L 208.220153 132.982244 
L 204.092557 130.905517 
L 199.868018 129.033857 
L 195.556716 127.371774 
L 191.169041 125.923273 
L 186.715567 124.691846 
L 182.207026 123.68046 
L 177.654283 122.891552 
L 173.06831 122.327024 
L 168.460158 121.988235 
L 163.840932 121.876003 
L 159.221764 121.990598 
L 154.613786 122.331743 
L 150.028102 122.898616 
L 145.475763 123.689852 
L 140.96774 124.703544 
L 136.514896 125.937249 
L 132.127963 127.387993 
L 127.817512 129.05228 
L 123.59393 130.926101 
L 119.467397 133.004939 
L 115.447856 135.283784 
L 111.544994 137.757145 
L 107.768217 140.419061 
L 104.126626 143.263118 
L 100.628997 146.282461 
L 97.283758 149.469814 
L 94.098972 152.817497 
L 91.082313 156.317441 
L 88.241051 159.961213 
L 85.582032 163.740031 
L 83.111666 167.644789 
L 80.835905 171.666077 
L 78.760233 175.794203 
L 76.889653 180.019221 
L 75.228673 184.330948 
L 73.781294 188.718993 
L 72.551006 193.172782 
L 71.540773 197.681581 
L 70.753029 202.234525 
L 70.189674 206.820643 
L 69.852063 211.428882 
L 69.741012 216.048136 
L 69.856788 220.667274 
L 70.199111 225.275165 
L 70.767158 229.860704 
L 71.559558 234.41284 
L 72.574402 238.920604 
L 73.809245 243.373132 
L 75.261111 247.759695 
L 76.926501 252.06972 
L 78.801401 256.292822 
L 80.881294 260.418824 
L 83.161167 264.437782 
L 85.635526 268.340011 
L 88.298408 272.116107 
L 91.143395 275.756971 
L 94.163633 279.253828 
L 97.351842 282.598252 
L 100.700338 285.782182 
L 104.201054 288.797946 
L 107.845552 291.638276 
L 111.62505 294.296328 
L 115.53044 296.765696 
L 119.552309 299.040429 
L 123.680966 301.115045 
L 127.906462 302.984544 
L 132.218614 304.644422 
L 136.607029 306.090679 
L 141.061132 307.319828 
L 145.570189 308.328908 
L 150.123335 309.115488 
L 154.709597 309.677671 
L 159.317921 310.014102 
L 163.937204 310.123972 
L 168.556313 310.007015 
L 173.164116 309.663514 
L 177.749509 309.094295 
L 182.301443 308.300731 
L 186.808947 307.284734 
L 191.261159 306.048753 
L 195.64735 304.595765 
L 199.95695 302.929273 
L 204.179572 301.053293 
L 208.305042 298.972345 
L 212.323417 296.691445 
L 216.225013 294.216088 
L 220.000428 291.552241 
L 223.640564 288.706322 
L 227.136649 285.685191 
L 230.480257 282.496127 
L 233.663331 279.146816 
L 236.6782 275.645329 
L 239.517598 272.000105 
L 242.174684 268.219927 
L 244.643053 264.313907 
L 246.916757 260.291456 
L 248.990317 256.162268 
L 250.858736 251.936294 
L 252.517512 247.623719 
L 253.962646 243.234934 
L 255.190656 238.780517 
L 256.198583 234.271201 
L 256.983998 229.717854 
L 257.545009 225.131449 
L 257.880262 220.523039 
L 257.989 216 
L 257.989 216 
" style="fill:none;stroke:#ffffff;stroke-linecap:square;stroke-width:2.0;"/>
   </g>
   <g id="line2d_2">
    <path clip-path="url(#p0d33c3d4bb)" d="M 230.420719 149.444281 
" style="fill:none;stroke:#fbb4ae;stroke-linecap:square;"/>
    <defs>
     <path d="M 0 8 
C 2.121625 8 4.156639 7.15707 5.656854 5.656854 
C 7.15707 4.156639 8 2.121625 8 0 
C 8 -2.121625 7.15707 -4.156639 5.656854 -5.656854 
C 4.156639 -7.15707 2.121625 -8 0 -8 
C -2.121625 -8 -4.156639 -7.15707 -5.656854 -5.656854 
C -7.15707 -4.156639 -8 -2.121625 -8 0 
C -8 2.121625 -7.15707 4.156639 -5.656854 5.656854 
C -4.156639 7.15707 -2.121625 8 0 8 
z
" id="m2b6ae3d7d9" style="stroke:#000000;stroke-width:0.5;"/>
    </defs>
    <g clip-path="url(#p0d33c3d4bb)">
     <use style="fill:#fbb4ae;stroke:#000000;stroke-width:0.5;" x="230.420718672" xlink:href="#m2b6ae3d7d9" y="149.444281328"/>
    </g>
   </g>
   <g id="line2d_3">
    <path clip-path="url(#p0d33c3d4bb)" d="M 253.951719 149.444281 
L 253.840721 147.161419 
L 253.508774 144.900094 
L 252.959011 142.681639 
L 252.196618 140.526984 
L 251.228786 138.456457 
L 250.064648 136.489591 
L 248.715185 134.644941 
L 247.193129 132.939912 
L 245.512839 131.390587 
L 243.690167 130.011585 
L 241.742309 128.815914 
L 239.687641 127.814854 
L 237.545547 127.017851 
L 235.336236 126.432422 
L 233.080551 126.064092 
L 230.799773 125.916335 
L 228.515419 125.990544 
L 226.24904 126.28602 
L 224.022017 126.799976 
L 221.855361 127.527562 
L 219.769511 128.461914 
L 217.784148 129.594218 
L 215.917999 130.91379 
L 214.188673 132.408183 
L 212.612482 134.063297 
L 211.204297 135.863519 
L 209.977404 137.791864 
L 208.943376 139.830139 
L 208.11197 141.959117 
L 207.491028 144.15871 
L 207.08641 146.408169 
L 206.901931 148.686271 
L 206.939333 150.971524 
L 207.198262 153.242369 
L 207.676276 155.477382 
L 208.368866 157.655478 
L 209.269496 159.756107 
L 210.369671 161.759454 
L 211.659012 163.646616 
L 213.125353 165.399791 
L 214.754863 167.002439 
L 216.532166 168.439441 
L 218.440497 169.697238 
L 220.461852 170.763965 
L 222.57716 171.629559 
L 224.766465 172.285853 
L 227.009114 172.726655 
L 229.283949 172.947807 
L 231.569508 172.947223 
L 233.844229 172.724907 
L 236.086653 172.282958 
L 238.275622 171.625545 
L 240.390488 170.758869 
L 242.411296 169.691109 
L 244.318984 168.432335 
L 246.095552 166.994425 
L 247.724242 165.390944 
L 249.189686 163.637019 
L 250.478061 161.749198 
L 251.577212 159.745289 
L 252.476768 157.644199 
L 253.168243 155.465749 
L 253.645115 153.230492 
L 253.902883 150.959515 
L 253.951719 149.444281 
L 253.951719 149.444281 
" style="fill:none;stroke:#b3cde3;stroke-linecap:square;"/>
   </g>
  </g>
  <g id="axes_2">
   <g id="line2d_4">
    <path clip-path="url(#pcadd17c8a0)" d="M 445.385 133.6415 
L 539.509 296.66905 
L 351.261 296.66905 
L 445.385 133.6415 
" style="fill:none;stroke:#ffffff;stroke-linecap:square;stroke-width:2.0;"/>
   </g>
   <g id="line2d_5">
    <path clip-path="url(#pcadd17c8a0)" d="M 445.385 133.6415 
" style="fill:none;stroke:#fbb4ae;stroke-linecap:square;"/>
    <g clip-path="url(#pcadd17c8a0)">
     <use style="fill:#fbb4ae;stroke:#000000;stroke-width:0.5;" x="445.385" xlink:href="#m2b6ae3d7d9" y="133.6415"/>
    </g>
   </g>
   <g id="line2d_6">
    <path clip-path="url(#pcadd17c8a0)" d="M 468.916 133.6415 
L 468.805002 131.358638 
L 468.473056 129.097312 
L 467.923292 126.878858 
L 467.160899 124.724203 
L 466.193068 122.653676 
L 465.028929 120.686809 
L 463.679466 118.84216 
L 462.15741 117.13713 
L 460.47712 115.587806 
L 458.654448 114.208803 
L 456.70659 113.013132 
L 454.651922 112.012073 
L 452.509828 111.215069 
L 450.300517 110.629641 
L 448.044832 110.261311 
L 445.764054 110.113553 
L 443.4797 110.187763 
L 441.213321 110.483239 
L 438.986298 110.997194 
L 436.819642 111.72478 
L 434.733793 112.659133 
L 432.748429 113.791436 
L 430.882281 115.111009 
L 429.152954 116.605402 
L 427.576763 118.260516 
L 426.168579 120.060737 
L 424.941685 121.989082 
L 423.907658 124.027358 
L 423.076251 126.156335 
L 422.45531 128.355929 
L 422.050691 130.605388 
L 421.866212 132.88349 
L 421.903614 135.168743 
L 422.162543 137.439588 
L 422.640558 139.674601 
L 423.333147 141.852696 
L 424.233778 143.953326 
L 425.333953 145.956672 
L 426.623293 147.843835 
L 428.089635 149.59701 
L 429.719144 151.199658 
L 431.496448 152.636659 
L 433.404778 153.894457 
L 435.426133 154.961184 
L 437.541441 155.826778 
L 439.730747 156.483071 
L 441.973396 156.923874 
L 444.24823 157.145026 
L 446.533789 157.144441 
L 448.808511 156.922126 
L 451.050934 156.480177 
L 453.239904 155.822763 
L 455.354769 154.956088 
L 457.375578 153.888327 
L 459.283265 152.629554 
L 461.059833 151.191644 
L 462.688523 149.588163 
L 464.153968 147.834238 
L 465.442343 145.946416 
L 466.541493 143.942508 
L 467.441049 141.841418 
L 468.132525 139.662968 
L 468.609396 137.427711 
L 468.867164 135.156734 
L 468.916 133.6415 
L 468.916 133.6415 
" style="fill:none;stroke:#b3cde3;stroke-linecap:square;"/>
   </g>
  </g>
 </g>
 <defs>
  <clipPath id="pcadd17c8a0">
   <rect height="258.841" width="235.31" x="327.73" y="86.5795"/>
  </clipPath>
  <clipPath id="p0d33c3d4bb">
   <rect height="235.31" width="235.31" x="46.21" y="98.345"/>
  </clipPath>
 </defs>
</svg>
